<?xml version="1.0" encoding="utf-8"?>
<!-- Generator: Adobe Illustrator 27.0.0, SVG Export Plug-In . SVG Version: 6.00 Build 0)  -->
<svg version="1.1" id="Logo" xmlns="http://www.w3.org/2000/svg" xmlns:xlink="http://www.w3.org/1999/xlink" x="0px" y="0px"
	 viewBox="0 0 846.4 208.4" style="enable-background:new 0 0 846.4 208.4;" xml:space="preserve">
<style type="text/css">
	.st0{fill:#FFFFFF;}
</style>
<g>
	<g>
		<g>
			<path class="st0" d="M89.7,0v79.3H169V0H89.7z M137,67c0-19.7-16.1-35.8-35.8-35.8V13.6c20.1,0,37.7,11.2,46.8,27.7
				c4.2,7.6,6.6,16.4,6.6,25.7C154.6,67,137,67,137,67z"/>
			<path class="st0" d="M0,79.4h79.3V0.1H0V79.4z M13.1,13.6h53.4v17.6H30.7v35.7H13.1V13.6z"/>
			<path class="st0" d="M0,169.2h79.3V89.9H0V169.2z M13.1,103.1h17.6v53.4H13.1V103.1z"/>
			<path class="st0" d="M89.7,169.2H169V89.9H89.7C89.7,89.9,89.7,169.2,89.7,169.2z M118.8,103.1c0,19.7,16,35.8,35.8,35.8v17.6
				c-29.4,0-53.4-23.9-53.4-53.4H118.8z"/>
		</g>
		<g>
			<g>
				<path class="st0" d="M698.1,155c-6.5,0-12.7-2.5-17.3-7.2c-4.6-4.6-7.2-10.8-7.2-17.3l0,0v-2.4l0,0l0,0c0-6.5,2.5-12.7,7.2-17.3
					c4.6-4.6,10.8-7.2,17.3-7.2s12.7,2.5,17.3,7.2l11.4-11.4c-7.7-7.7-17.9-11.9-28.7-11.9c-10.9,0-21.1,4.2-28.7,11.9
					c-7.7,7.7-11.9,17.9-11.9,28.7l0,0l0,0v2.4l0,0c0,10.9,4.2,21.1,11.9,28.7c7.7,7.7,17.9,11.9,28.7,11.9
					c10.9,0,21.1-4.2,28.7-11.9l-11.4-11.4C710.8,152.4,704.6,155,698.1,155z"/>
				<path class="st0" d="M436.3,130.4L436.3,130.4c0,13.5-11,24.5-24.5,24.5s-24.5-11-24.5-24.5l0,0l0,0c0-13.5,11-24.5,24.5-24.5
					h9.3V89.8h-9.3c-22.4,0-40.6,18.2-40.6,40.6l0,0l0,0c0,22.4,18.2,40.6,40.6,40.6c9.2,0,17.7-3.1,24.5-8.2v6.5h16.1V60.6h-16.1
					V130.4z"/>
				<path class="st0" d="M316.1,89.8c-22.4,0-40.6,18.2-40.6,40.6l0,0l0,0c0,22.4,18.2,40.6,40.6,40.6l0,0l0,0h3.9v-16.1h-3.9l0,0
					c-13.5,0-24.5-11-24.5-24.5l0,0l0,0c0-13.5,11-24.5,24.5-24.5h23.3v63.4h16.1V89.8L316.1,89.8z"/>
				<path class="st0" d="M605.1,87.4c-22.4,0-40.6,18.2-40.6,40.6l0,0l0,0v41.2h16.1V128l0,0l0,0c0-13.5,11-24.5,24.5-24.5
					s24.5,11,24.5,24.5v41.1h16.1V128C645.7,105.7,627.5,87.4,605.1,87.4z"/>
				<polygon class="st0" points="219.7,169.2 235.9,169.2 235.9,106 268.9,106 268.9,89.8 219.7,89.8 				"/>
				<path class="st0" d="M509,89.8c-22.4,0-40.6,18.2-40.6,40.6l0,0l0,0c0,22.4,18.2,40.6,40.6,40.6l0,0l0,0h3.9v-16.1H509l0,0
					c-13.5,0-24.5-11-24.5-24.5l0,0c0-13.5,11-24.5,24.5-24.5h23.3v63.4h16.1V89.8L509,89.8z"/>
				<path class="st0" d="M800,89.8v77.1c0,14.1-11.5,25.6-25.6,25.6v15.9c22.9,0,41.8-18.6,41.8-41.6V89.7H800V89.8z"/>
				<path class="st0" d="M782.1,171v-16.1h-5.2c-13.5,0-24.5-11-24.5-24.5l0,0V89.8h-16.1v40.6l0,0c0,22.4,18.2,40.6,40.6,40.6
					H782.1z"/>
			</g>
		</g>
	</g>
	<g>
		<path class="st0" d="M846.4,97.9c0,4.4-3.6,7.7-7.9,7.7c-4.3,0-7.9-3.3-7.9-7.7c0-4.4,3.6-7.7,7.9-7.7
			C842.8,90.3,846.4,93.6,846.4,97.9z M844.9,97.9c0-3.5-2.9-6.3-6.4-6.3c-3.4,0-6.4,2.7-6.4,6.3c0,3.5,2.9,6.3,6.4,6.3
			C842,104.2,844.9,101.5,844.9,97.9z M839.8,98.9l2.1,2.6h-1.5l-2-2.5h-1.5v2.5h-1.1v-7.4h3.1c1.6,0,2.7,1,2.7,2.5
			C841.7,97.8,841,98.6,839.8,98.9z M837,97.9h1.9c0.9,0,1.6-0.5,1.6-1.4c0-0.8-0.7-1.4-1.6-1.4H837V97.9z"/>
	</g>
</g>
</svg>
