<svg id="Layer_1" data-name="Layer 1" xmlns="http://www.w3.org/2000/svg" xmlns:xlink="http://www.w3.org/1999/xlink" viewBox="0 0 852.15 257.4"><defs><style>.cls-1{fill:none;}.cls-2{fill:#fff;}.cls-3{clip-path:url(#clip-path);}.cls-4{clip-path:url(#clip-path-2);}.cls-5{clip-path:url(#clip-path-3);}</style><clipPath id="clip-path"><path class="cls-1" d="M54.64,55l55.42,0V73.29H72.9v37.07H54.64ZM41,123.26h82.23V41H41Z"/></clipPath><clipPath id="clip-path-2"><path class="cls-1" d="M54.64,147.87H72.9v55.37H54.64ZM41,216.38h82.23V134.16H41Z"/></clipPath><clipPath id="clip-path-3"><path class="cls-1" d="M146,147.87h18.28A37.13,37.13,0,0,0,201.34,185v18.28A55.45,55.45,0,0,1,146,147.87M134,216.38h82.23V134.16H134Z"/></clipPath></defs><g id="radancy"><path class="cls-2" d="M41,40.94"/><path class="cls-2" d="M852.15,218.26V201.53h-5.4a25.43,25.43,0,0,1-25.4-25.4V134.07H804.62v42.06a42.18,42.18,0,0,0,42.13,42.13Z"/></g><g id="icon"><path class="cls-2" d="M257.2,78.24,179,164.11,93.1,85.87,171.34,0Z"/><g class="cls-3"><path class="cls-2" d="M164.26,79.3,85,164.28,0,85,79.28,0Z"/></g><g class="cls-4"><path class="cls-2" d="M164.26,172.42,85,257.4,0,178.12l79.28-85Z"/></g><g class="cls-5"><path class="cls-2" d="M257.28,172.42,178,257.4,93,178.12l79.27-85Z"/></g></g></svg>