<?xml version="1.0" encoding="utf-8"?>
<!-- Generator: Adobe Illustrator 27.3.1, SVG Export Plug-In . SVG Version: 6.00 Build 0)  -->
<svg version="1.1" id="Logo" xmlns="http://www.w3.org/2000/svg" xmlns:xlink="http://www.w3.org/1999/xlink" x="0px" y="0px"
	 viewBox="0 0 900.2 269.3" style="enable-background:new 0 0 900.2 269.3;" xml:space="preserve">
<style type="text/css">
	.st0{fill:url(#SVGID_1_);}
	.st1{fill:url(#SVGID_00000138531944753167517230000003426016276571800485_);}
	.st2{fill:url(#SVGID_00000078732657362171247180000006079744582079973031_);}
	.st3{fill:url(#SVGID_00000008864468956356746250000012676044737821344191_);}
	.st4{fill:#6F00EF;}
</style>
<g>
	<g>
		<g>
			<linearGradient id="SVGID_1_" gradientUnits="userSpaceOnUse" x1="193.5392" y1="29.1175" x2="45.8608" y2="191.1866">
				<stop  offset="5.359210e-02" style="stop-color:#08BFF7"/>
				<stop  offset="0.3538" style="stop-color:#357CF7"/>
				<stop  offset="0.7767" style="stop-color:#7123F7"/>
				<stop  offset="0.9687" style="stop-color:#8900F7"/>
			</linearGradient>
			<path class="st0" d="M116.6,30.4v79.3h79.3V30.4H116.6z M163.9,97.4c0-19.7-16.1-35.8-35.8-35.8V44c20.1,0,37.7,11.2,46.8,27.7
				c4.2,7.6,6.6,16.4,6.6,25.7H163.9z"/>
			
				<linearGradient id="SVGID_00000165207415533406729620000015508825894467959197_" gradientUnits="userSpaceOnUse" x1="146.1248" y1="-15.1548" x2="-3.5115" y2="145.2508">
				<stop  offset="2.779845e-02" style="stop-color:#00D8FF"/>
				<stop  offset="0.9252" style="stop-color:#8900F7"/>
			</linearGradient>
			<path style="fill:url(#SVGID_00000165207415533406729620000015508825894467959197_);" d="M26.9,109.8h79.3V30.5H26.9V109.8z
				 M40,44l53.4,0v17.6H57.6v35.7H40V44z"/>
			
				<linearGradient id="SVGID_00000124851604430555374710000003439701993469596828_" gradientUnits="userSpaceOnUse" x1="190.9115" y1="26.6251" x2="41.2752" y2="187.0307">
				<stop  offset="0" style="stop-color:#00D8FF"/>
				<stop  offset="0.9321" style="stop-color:#8900F7"/>
			</linearGradient>
			<path style="fill:url(#SVGID_00000124851604430555374710000003439701993469596828_);" d="M26.9,199.6h79.3v-79.3H26.9V199.6z
				 M40,133.5h17.6v53.4H40V133.5z"/>
			
				<linearGradient id="SVGID_00000180347343182027032340000001164377547511098036_" gradientUnits="userSpaceOnUse" x1="238.8658" y1="71.3598" x2="89.2295" y2="231.7654">
				<stop  offset="0" style="stop-color:#00D8FF"/>
				<stop  offset="0.6474" style="stop-color:#5F42F9"/>
				<stop  offset="0.951" style="stop-color:#8900F7"/>
			</linearGradient>
			<path style="fill:url(#SVGID_00000180347343182027032340000001164377547511098036_);" d="M116.6,199.6h79.3v-79.3h-79.3V199.6z
				 M145.7,133.5c0,19.7,16,35.8,35.8,35.8v17.6c-29.4,0-53.4-23.9-53.4-53.4H145.7z"/>
		</g>
		<g>
			<g>
				<path class="st4" d="M725,185.4c-6.5,0-12.7-2.5-17.3-7.2c-4.6-4.6-7.2-10.8-7.2-17.3h0v-2.4l0,0h0c0-6.5,2.5-12.7,7.2-17.3
					c4.6-4.6,10.8-7.2,17.3-7.2c6.5,0,12.7,2.5,17.3,7.2l11.4-11.4c-7.7-7.7-17.9-11.9-28.7-11.9c-10.9,0-21.1,4.2-28.7,11.9
					c-7.7,7.7-11.9,17.9-11.9,28.7h0l0,0v2.4h0c0,10.9,4.2,21.1,11.9,28.7c7.7,7.7,17.9,11.9,28.7,11.9c10.9,0,21.1-4.2,28.7-11.9
					l-11.4-11.4C737.7,182.8,731.5,185.4,725,185.4z"/>
				<path class="st4" d="M463.2,160.8L463.2,160.8c0,13.5-11,24.5-24.5,24.5c-13.5,0-24.5-11-24.5-24.5h0l0,0
					c0-13.5,11-24.5,24.5-24.5h9.3v-16.1h-9.3c-22.4,0-40.6,18.2-40.6,40.6l0,0h0c0,22.4,18.2,40.6,40.6,40.6
					c9.2,0,17.7-3.1,24.5-8.2v6.5h16.1V91h-16.1V160.8z"/>
				<path class="st4" d="M343,120.2c-22.4,0-40.6,18.2-40.6,40.6l0,0h0c0,22.4,18.2,40.6,40.6,40.6v0l0,0h3.9v-16.1H343l0,0
					c-13.5,0-24.5-11-24.5-24.5h0l0,0c0-13.5,11-24.5,24.5-24.5h23.3v63.4h16.1v-79.5L343,120.2z"/>
				<path class="st4" d="M632,117.8c-22.4,0-40.6,18.2-40.6,40.6h0l0,0v41.2h16.1v-41.2l0,0h0c0-13.5,11-24.5,24.5-24.5
					c13.5,0,24.5,11,24.5,24.5v41.1h16.1v-41.1C672.6,136.1,654.4,117.8,632,117.8z"/>
				<polygon class="st4" points="246.6,199.6 262.8,199.6 262.8,136.4 295.8,136.4 295.8,120.2 246.6,120.2 				"/>
				<path class="st4" d="M535.9,120.2c-22.4,0-40.6,18.2-40.6,40.6l0,0h0c0,22.4,18.2,40.6,40.6,40.6v0l0,0h3.9v-16.1h-3.9l0,0
					c-13.5,0-24.5-11-24.5-24.5l0,0c0-13.5,11-24.5,24.5-24.5h23.3v63.4h16.1v-79.5L535.9,120.2z"/>
				<path class="st4" d="M826.9,120.2v77.1c0,14.1-11.5,25.6-25.6,25.6v15.9c22.9,0,41.8-18.6,41.8-41.6v-77.1H826.9z"/>
				<path class="st4" d="M809,201.4v-16.1l-5.2,0c-13.5,0-24.5-11-24.5-24.5h0v-40.6h-16.1v40.6l0,0c0,22.4,18.2,40.6,40.6,40.6
					L809,201.4z"/>
			</g>
		</g>
	</g>
	<g>
		<path class="st4" d="M873.3,128.3c0,4.4-3.6,7.7-7.9,7.7c-4.3,0-7.9-3.3-7.9-7.7c0-4.4,3.6-7.7,7.9-7.7
			C869.7,120.7,873.3,124,873.3,128.3z M871.8,128.3c0-3.5-2.9-6.3-6.4-6.3c-3.4,0-6.4,2.7-6.4,6.3c0,3.5,2.9,6.3,6.4,6.3
			C868.9,134.6,871.8,131.9,871.8,128.3z M866.7,129.3l2.1,2.6h-1.5l-2-2.5h-1.5v2.5h-1.1v-7.4h3.1c1.6,0,2.7,1,2.7,2.5
			C868.6,128.2,867.9,129,866.7,129.3z M863.9,128.3h1.9c0.9,0,1.6-0.5,1.6-1.4c0-0.8-0.7-1.4-1.6-1.4h-1.9V128.3z"/>
	</g>
</g>
</svg>
