<svg id="Logo" xmlns="http://www.w3.org/2000/svg" viewBox="0 0 846.43 216.2"><defs><style>.cls-1{fill:#fff;}</style></defs><path class="cls-1" d="M93,0V82.23h82.23V0Zm49.05,69.45A37.15,37.15,0,0,0,105,32.35V14.09a55.39,55.39,0,0,1,55.37,55.36Z"/><path class="cls-1" d="M0,82.32H82.23V.09H0ZM13.62,14.05l55.43,0V32.35H31.88V69.41H13.62Z"/><path class="cls-1" d="M0,175.44H82.23V93.21H0Zm13.62-68.52H31.88v55.37H13.62Z"/><path class="cls-1" d="M93,175.44h82.23V93.21H93Zm30.22-68.51A37.13,37.13,0,0,0,160.32,144v18.28A55.43,55.43,0,0,1,105,106.93Z"/><path class="cls-1" d="M724,160.68a25.4,25.4,0,0,1-25.4-25.4h0V132.8h0a25.39,25.39,0,0,1,43.35-17.95L753.77,103a42.13,42.13,0,0,0-71.92,29.79h0v2.48h0a42.12,42.12,0,0,0,71.92,29.78l-11.84-11.82A25.24,25.24,0,0,1,724,160.68Z"/><path class="cls-1" d="M452.51,135.19h0a25.4,25.4,0,1,1-50.8,0h0a25.42,25.42,0,0,1,25.4-25.4h9.61V93.06h-9.61A42.18,42.18,0,0,0,385,135.19h0a42.1,42.1,0,0,0,67.53,33.58v6.79h16.73V62.81H452.51Z"/><path class="cls-1" d="M327.86,93.06a42.18,42.18,0,0,0-42.13,42.13h0a42.18,42.18,0,0,0,42.13,42.13h4V160.58h-4a25.43,25.43,0,0,1-25.4-25.4h0a25.42,25.42,0,0,1,25.4-25.4h24.2v65.72h16.73V93.09Z"/><path class="cls-1" d="M627.52,90.67a42.16,42.16,0,0,0-42.12,42.12h0v42.72h16.73V132.79h0a25.4,25.4,0,0,1,50.79,0v42.65h16.73V132.79A42.17,42.17,0,0,0,627.52,90.67Z"/><polygon class="cls-1" points="227.89 175.44 244.62 175.44 244.62 109.86 278.88 109.86 278.88 93.13 227.89 93.13 227.89 175.44"/><path class="cls-1" d="M527.86,93.06a42.18,42.18,0,0,0-42.13,42.13h0a42.18,42.18,0,0,0,42.13,42.13h4V160.58h-4a25.43,25.43,0,0,1-25.4-25.4h0a25.42,25.42,0,0,1,25.4-25.4h24.19v65.72h16.73V93.09Z"/><path class="cls-1" d="M829.68,93.13v80a26.6,26.6,0,0,1-26.58,26.57V216.2a43.35,43.35,0,0,0,43.33-43.1v-80Z"/><path class="cls-1" d="M811.13,177.32V160.58h-5.4a25.43,25.43,0,0,1-25.39-25.4h0V93.13H763.61v42.06h0a42.18,42.18,0,0,0,42.13,42.13Z"/></svg>