<svg xmlns="http://www.w3.org/2000/svg" xmlns:xlink="http://www.w3.org/1999/xlink" viewBox="0 0 846.43 289.17">

  <style>path{fill:#fff;}</style>

  <g id="radancy">

    <defs>

      <path id="SVGID_1_" d="M0 0h846.43v289.17H0z"/>

    </defs>

    <clipPath id="SVGID_2_">

      <use xlink:href="#SVGID_1_" overflow="visible"/>

    </clipPath>

    <path class="st0" d="M723.97 160.68c-6.79 0-13.16-2.64-17.96-7.44-4.8-4.8-7.44-11.18-7.44-17.96v-2.48c0-6.78 2.64-13.16 7.44-17.96 4.8-4.8 11.17-7.44 17.96-7.44 6.78 0 13.16 2.64 17.96 7.44L753.76 103c-7.96-7.96-18.54-12.34-29.79-12.34s-21.83 4.38-29.79 12.34c-7.96 7.96-12.34 18.54-12.34 29.79v2.48c0 11.26 4.38 21.83 12.34 29.79 7.96 7.96 18.54 12.34 29.79 12.34s21.83-4.38 29.79-12.34l-11.83-11.83a25.21 25.21 0 01-17.96 7.45m-271.46-25.49c0 14.01-11.4 25.4-25.4 25.4s-25.4-11.39-25.4-25.4c0-14 11.39-25.4 25.4-25.4h9.61V93.06h-9.61c-23.23 0-42.13 18.9-42.13 42.13 0 23.23 18.9 42.13 42.13 42.13 9.53 0 18.33-3.19 25.4-8.54v6.79h16.73V62.81h-16.73v72.38zM327.86 93.06c-23.23 0-42.13 18.9-42.13 42.13 0 23.23 18.9 42.13 42.13 42.13h4.03v-16.73h-4.03c-14 0-25.4-11.39-25.4-25.4 0-14 11.39-25.4 25.4-25.4h24.2v65.72h16.73V93.09l-40.93-.03zm299.66-2.39c-23.23 0-42.13 18.9-42.13 42.13v42.71h16.73V132.8c0-14 11.39-25.4 25.4-25.4 14 0 25.4 11.39 25.4 25.4v42.65h16.73V132.8c0-23.24-18.9-42.13-42.13-42.13m-399.63 84.77h16.73v-65.58h34.27V93.13h-51zm299.97-82.38c-23.23 0-42.13 18.9-42.13 42.13 0 23.23 18.9 42.13 42.13 42.13h4.03v-16.73h-4.03c-14 0-25.4-11.39-25.4-25.4 0-14 11.39-25.4 25.4-25.4h24.2v65.72h16.73V93.09l-40.93-.03zm301.82.07v79.96c0 14.66-11.92 26.58-26.58 26.58v16.53c23.77 0 43.33-19.34 43.33-43.11V93.13h-16.75z"/>

    <path class="st0" d="M811.13 177.32v-16.73h-5.4c-14 0-25.4-11.39-25.4-25.4V93.13H763.6v42.06c0 23.23 18.9 42.13 42.13 42.13h5.4z"/>

  </g>

  <g id="icon">

    <defs>

      <path id="SVGID_3_" d="M104.95 32.35V14.09c20.88 0 39.1 11.62 48.53 28.73a55.02 55.02 0 016.84 26.64h-18.26c0-20.47-16.65-37.11-37.11-37.11M93.01 82.23h82.23V0H93.01v82.23z"/>

    </defs>

    <clipPath id="SVGID_4_">

      <use xlink:href="#SVGID_3_" overflow="visible"/>

    </clipPath>

    <linearGradient id="SVGID_5_" gradientUnits="userSpaceOnUse" x1="0" y1="289.165" x2="1" y2="289.165" gradientTransform="scale(-227.3954 227.3954) rotate(47.66 326.975 143.72)">

      <stop offset="0" stop-color="#08bff7"/>

      <stop offset=".054" stop-color="#08bff7"/>

      <stop offset=".352" stop-color="#357df7"/>

      <stop offset=".776" stop-color="#7123f7"/>

      <stop offset=".969" stop-color="#8900f7"/>

      <stop offset="1" stop-color="#8900f7"/>

    </linearGradient>

    <path clip-path="url(#SVGID_4_)" fill="url(#SVGID_5_)" d="M216.18 37.3l-78.24 85.87-85.86-78.24 78.24-85.87z"/>

    <defs>

      <path id="SVGID_6_" d="M13.62 14.05l55.42.04v18.26H31.88v37.07H13.62V14.05zM0 82.32h82.23V.1H0v82.22z"/>

    </defs>

    <clipPath id="SVGID_7_">

      <use xlink:href="#SVGID_6_" overflow="visible"/>

    </clipPath>

    <linearGradient id="SVGID_8_" gradientUnits="userSpaceOnUse" x1="0" y1="289.165" x2="1" y2="289.165" gradientTransform="scale(-227.5033 227.5033) rotate(46.989 332.569 143.854)">

      <stop offset="0" stop-color="#00d8ff"/>

      <stop offset=".028" stop-color="#00d8ff"/>

      <stop offset=".925" stop-color="#8900f7"/>

      <stop offset="1" stop-color="#8900f7"/>

    </linearGradient>

    <path clip-path="url(#SVGID_7_)" fill="url(#SVGID_8_)" d="M123.24 38.36l-79.27 84.98-84.99-79.28 79.28-84.98z"/>

    <g>

      <defs>

        <path id="SVGID_9_" d="M13.62 106.93h18.26v55.37H13.62v-55.37zM0 175.44h82.23V93.22H0v82.22z"/>

      </defs>

      <clipPath id="SVGID_10_">

        <use xlink:href="#SVGID_9_" overflow="visible"/>

      </clipPath>

      <linearGradient id="SVGID_11_" gradientUnits="userSpaceOnUse" x1="0" y1="289.165" x2="1" y2="289.165" gradientTransform="scale(-227.5033 227.5033) rotate(46.989 332.248 143.714)">

        <stop offset="0" stop-color="#00d8ff"/>

        <stop offset=".932" stop-color="#8900f7"/>

        <stop offset="1" stop-color="#8900f7"/>

      </linearGradient>

      <path clip-path="url(#SVGID_10_)" fill="url(#SVGID_11_)" d="M123.24 131.48l-79.27 84.98-84.99-79.28L38.26 52.2z"/>

    </g>

    <g>

      <defs>

        <path id="SVGID_12_" d="M104.95 106.93h18.28c0 20.45 16.64 37.09 37.09 37.09v18.28c-30.53-.01-55.37-24.85-55.37-55.37m-11.94 68.51h82.23V93.22H93.01v82.22z"/>

      </defs>

      <clipPath id="SVGID_13_">

        <use xlink:href="#SVGID_12_" overflow="visible"/>

      </clipPath>

      <linearGradient id="SVGID_14_" gradientUnits="userSpaceOnUse" x1="0" y1="289.165" x2="1" y2="289.165" gradientTransform="scale(-227.5033 227.5033) rotate(46.989 331.904 143.564)">

        <stop offset="0" stop-color="#00d8ff"/>

        <stop offset=".653" stop-color="#6040f9"/>

        <stop offset=".951" stop-color="#8900f7"/>

        <stop offset="1" stop-color="#8900f7"/>

      </linearGradient>

      <path clip-path="url(#SVGID_13_)" fill="url(#SVGID_14_)" d="M216.26 131.48l-79.28 84.98L52 137.18l79.27-84.98z"/>

    </g>

  </g>

</svg>
