<svg id="Logo" xmlns="http://www.w3.org/2000/svg" viewBox="0 0 846.43 216.2">
  <defs>
    <style>
      .cls-1{fill:#fff}
    </style>
  </defs>
  <path class="cls-1" d="M93 0v82.23h82.23V0zm49.05 69.45A37.15 37.15 0 00105 32.35V14.09a55.39 55.39 0 0155.37 55.36zM0 82.32h82.23V.09H0zm13.62-68.27h55.43v18.3H31.88v37.06H13.62zM0 175.44h82.23V93.21H0zm13.62-68.52h18.26v55.37H13.62zM93 175.44h82.23V93.21H93zm30.22-68.51a37.13 37.13 0 0037.1 37.07v18.28A55.43 55.43 0 01105 106.93zM724 160.68a25.4 25.4 0 01-25.4-25.4v-2.48a25.39 25.39 0 0143.35-17.95L753.77 103a42.13 42.13 0 00-71.92 29.79v2.48a42.12 42.12 0 0071.92 29.78l-11.84-11.82a25.24 25.24 0 01-17.93 7.45zM452.51 135.19a25.4 25.4 0 11-50.8 0 25.42 25.42 0 0125.4-25.4h9.61V93.06h-9.61A42.18 42.18 0 00385 135.19a42.1 42.1 0 0067.53 33.58v6.79h16.73V62.81h-16.75zM327.86 93.06a42.18 42.18 0 00-42.13 42.13 42.18 42.18 0 0042.13 42.13h4v-16.74h-4a25.43 25.43 0 01-25.4-25.4 25.42 25.42 0 0125.4-25.4h24.2v65.72h16.73V93.09zM627.52 90.67a42.16 42.16 0 00-42.12 42.12v42.72h16.73v-42.72a25.4 25.4 0 0150.79 0v42.65h16.73v-42.65a42.17 42.17 0 00-42.13-42.12zM227.89 175.44h16.73v-65.58h34.26V93.13h-50.99v82.31zM527.86 93.06a42.18 42.18 0 00-42.13 42.13 42.18 42.18 0 0042.13 42.13h4v-16.74h-4a25.43 25.43 0 01-25.4-25.4 25.42 25.42 0 0125.4-25.4h24.19v65.72h16.73V93.09zM829.68 93.13v80a26.6 26.6 0 01-26.58 26.57v16.5a43.35 43.35 0 0043.33-43.1v-80z"/>
  <path class="cls-1" d="M811.13 177.32v-16.74h-5.4a25.43 25.43 0 01-25.39-25.4V93.13h-16.73v42.06a42.18 42.18 0 0042.13 42.13z"/>
</svg>
