<!DOCTYPE svg PUBLIC "-//W3C//DTD SVG 1.1//EN" "http://www.w3.org/Graphics/SVG/1.1/DTD/svg11.dtd" [
	<!ENTITY ns_flows "http://ns.adobe.com/Flows/1.0/">
]><svg xmlns="http://www.w3.org/2000/svg" width="134" height="139" overflow="visible"><path fill="none" stroke="#666666" stroke-width="3" stroke-miterlimit="10" d="M133.9 52.2S90.3 66.75 56.13 78.17M60.04 69.7c31.65-7.5 73.86-17.5 73.86-17.5M45.56 81.7c-16.93 5.67-29.5 9.88-29.5 9.88l9.8-13.77c.02 0 10.67-2.52 25.3-5.98"/><path fill="#fff" d="M18.65 91.4c-6 2.84-13.18.26-16-5.76-2.83-6-.25-13.17 5.77-16 6-2.83 13.18-.24 16 5.77.9 1.93 1.25 3.97 1.12 5.94-.3 4.2-2.8 8.15-6.9 10.07"/><path fill="none" stroke="#666666" stroke-width="3" stroke-miterlimit="10" d="M18.65 91.4c-6 2.84-13.18.26-16-5.76-2.83-6-.25-13.17 5.77-16 6-2.83 13.18-.24 16 5.77.9 1.93 1.25 3.97 1.12 5.94-.3 4.2-2.8 8.15-6.9 10.07z"/><circle cx="13.534" cy="80.526" r="8.02" fill="none" stroke="#666666" stroke-width="3" stroke-miterlimit="10"/><path fill="none" stroke="#666666" stroke-width="3" stroke-miterlimit="10" d="M45.6 101.8L91.6.74 30.2 108.8z"/><path fill="#fff" d="M30.87 106.27c-3.93 5.35-2.78 12.88 2.58 16.82 5.35 3.92 12.88 2.76 16.8-2.6 3.95-5.34 2.8-12.88-2.56-16.8-1.72-1.26-3.65-2-5.62-2.25-4.2-.53-8.53 1.17-11.2 4.82"/><path fill="none" stroke="#666666" stroke-width="3" stroke-miterlimit="10" d="M30.87 106.27c-3.93 5.35-2.78 12.88 2.58 16.82 5.35 3.92 12.88 2.76 16.8-2.6 3.95-5.34 2.8-12.88-2.56-16.8-1.72-1.26-3.65-2-5.62-2.25-4.2-.53-8.53 1.17-11.2 4.82z"/><circle cx="40.568" cy="113.389" r="8.02" fill="none" stroke="#666666" stroke-width="3" stroke-miterlimit="10"/><circle cx="53.719" cy="74.768" r="1.552" fill="none" stroke="#666666" stroke-width="3" stroke-miterlimit="10"/><path fill="none" stroke="#666666" stroke-width="3" stroke-miterlimit="10" d="M82 64.67c.03-.2.06-.42.1-.63.13-.82.5-1.08 1.33-.96.8.12 1.58.24 2.37.37M95.46 64.93c2.93.45 5.86.9 8.8 1.36.2.02.4.04.62.07l.1-.08c.14-.93.28-1.85.43-2.82-.2-.04-.4-.07-.6-.1-1-.15-2-.3-3-.46M93.3 61.6c-3.08-.47-6.16-.95-9.24-1.42-1.06-.17-1.3-.47-1.13-1.53.12-.87.26-1.74.4-2.6.14-.85.55-1.15 1.4-1.02 6.92 1.07 13.84 2.13 20.76 3.2.2.03.4.05.62.08.03-.02.06-.04.1-.07.14-.9.28-1.8.43-2.8-.2-.03-.38-.06-.56-.1-7-1.07-13.96-2.15-20.94-3.23-.9-.14-1.14-.48-1-1.38.12-.9.26-1.78.4-2.67.14-.9.57-1.2 1.46-1.07 3.84.6 7.68 1.18 11.52 1.77 3.27.5 6.55 1 9.88 1.52.14-.95.3-1.88.44-2.9-.2-.02-.4-.05-.6-.08-6.56-1.03-13.14-2.05-19.72-3.07-.45-.06-.9-.15-1.35-.22-.55-.08-.92-.48-.85-1.02.14-1.1.3-2.2.5-3.3.08-.43.4-.7.84-.75.25-.03.52 0 .78.03 6.85 1.05 13.7 2.1 20.56 3.16.2.03.4.06.62.1.15-.95.3-1.88.44-2.86-.22-.03-.42-.06-.63-.1-6.15-.95-12.3-1.9-18.47-2.85-.87-.13-1.73-.3-2.6-.45-.55-.1-.88-.5-.8-1.05.13-1.08.3-2.16.5-3.24.1-.58.56-.83 1.18-.73 7.12 1.1 14.23 2.2 21.35 3.3.08 0 .17 0 .27 0 .15-.95.3-1.9.45-2.9-.2-.03-.4-.06-.6-.1-6.86-1.05-13.7-2.1-20.57-3.16-.22-.03-.45-.08-.66-.16-.55-.2-.77-.57-.68-1.15.14-1 .3-2.02.47-3.03.12-.67.54-.95 1.22-.85 10.8 1.67 21.63 3.33 32.44 5 .2.03.38.06.6.1-5.62 36.56-11.24 73.1-16.88 109.68-.2-.04-.4-.07-.58-.1-10.7-1.64-21.4-3.3-32.08-4.93-1.08-.17-1.4-.57-1.23-1.65.12-.9.25-1.78.4-2.67.12-.7.54-.98 1.24-.87 7.1 1.1 14.2 2.2 21.3 3.28.08.02.17.03.3.04.14-.96.3-1.9.44-2.92-.2-.02-.4-.06-.6-.1-6.88-1.05-13.75-2.1-20.62-3.16-1.12-.18-1.4-.53-1.23-1.64.12-.87.26-1.74.4-2.6.13-.8.52-1.06 1.3-.94 6.96 1.07 13.92 2.14 20.88 3.2.22.05.42.08.67.12.15-.97.3-1.92.45-2.93-.2-.03-.37-.06-.56-.1-6.9-1.05-13.8-2.12-20.72-3.18-1.07-.18-1.34-.52-1.18-1.57.12-.88.26-1.75.4-2.62.14-.83.5-1.1 1.36-.97 6.94 1.07 13.88 2.14 20.83 3.2.2.04.4.07.66.1.16-.96.3-1.9.46-2.9-.2-.04-.4-.07-.58-.1-6.94-1.07-13.9-2.14-20.83-3.22-.96-.14-1.2-.47-1.07-1.42.13-.9.27-1.78.4-2.67.15-.86.57-1.15 1.46-1.02 6.9 1.07 13.8 2.13 20.72 3.2.2.02.42.05.63.07.02-.02.05-.05.1-.07.12-.9.26-1.8.42-2.8-.22-.04-.42-.07-.62-.1-7-1.08-13.98-2.17-20.97-3.25-.75-.12-1.04-.5-.93-1.25.14-.98.3-1.95.45-2.93.1-.67.55-1 1.23-.95.16 0 .3.04.47.07 6.82 1.04 13.63 2.1 20.45 3.14.2.04.42.07.63.1.03-.03.06-.06.1-.08.13-.9.27-1.8.42-2.76-.24-.04-.42-.07-.6-.1-6.7-1.04-13.36-2.08-20.04-3.12-.33-.06-.68-.13-1.03-.18-.57-.1-.92-.5-.85-1.07.14-1.1.3-2.17.5-3.25.1-.54.57-.83 1.2-.8.16 0 .3.03.47.06 6.8 1.06 13.62 2.1 20.44 3.15.2.04.42.06.63.08.03-.02.06-.05.1-.07.13-.87.26-1.75.4-2.62-.02-.03-.05-.06-.07-.1-1.15-.18-2.3-.37-3.45-.55-5.9-.9-11.78-1.83-17.68-2.72-.95-.15-1.5-.6-1.26-1.7.2-.85.28-1.74.43-2.6.12-.74.53-1 1.26-.9 7.1 1.1 14.2 2.2 21.28 3.28.07 0 .15 0 .2.02.05-.03.08-.05.1-.08.15-.9.3-1.8.43-2.7 0-.05-.04-.08-.06-.12-1.04-.16-2.1-.33-3.13-.5-6-.92-12-1.85-18-2.77-1.14-.17-1.4-.5-1.24-1.66.13-.87.26-1.74.4-2.6.13-.75.53-1.03 1.27-.9 6.98 1.06 13.95 2.14 20.93 3.2.2.04.38.06.58.08.03-.02.06-.05.1-.07.13-.9.27-1.82.4-2.72 0-.04-.03-.07-.06-.1-.2-.04-.4-.1-.62-.12-6.3-.96-12.6-1.93-18.88-2.9"/><path fill="none" stroke="#666666" stroke-width="3" stroke-miterlimit="10" d="M106.22 58.23c-.04.03-.07.05-.1.08.03-.02.06-.04.1-.07zM104.97 66.3l-.1.07.1-.08zM104.08 71.53c.03.03.05.07.07.1-.02-.03-.04-.07-.07-.1zM103.73 74.35c-.03.02-.06.05-.1.07.04-.02.07-.05.1-.07zM102.84 79.6c.03.02.05.05.07.1 0-.05-.03-.08-.06-.1zM102.5 82.4c-.04.03-.07.06-.1.08.03-.02.06-.05.1-.07zM101.6 87.65c.03.03.05.06.07.1-.02-.04-.05-.07-.07-.1zM101.27 90.36c-.03.03-.06.05-.1.08.03-.03.07-.05.1-.08zM100.03 98.42c-.04.02-.07.05-.1.07.03-.03.06-.06.1-.08zM98.8 106.48c-.04.02-.07.05-.1.07.02-.02.06-.05.1-.07z"/></svg>