<!DOCTYPE svg PUBLIC "-//W3C//DTD SVG 1.1//EN" "http://www.w3.org/Graphics/SVG/1.1/DTD/svg11.dtd" [
	<!ENTITY ns_flows "http://ns.adobe.com/Flows/1.0/">
]><svg xmlns="http://www.w3.org/2000/svg" width="106" height="99" xmlns:xlink="http://www.w3.org/1999/xlink" overflow="visible"><path fill="none" stroke="#666666" stroke-width="3" stroke-miterlimit="10" d="M87.77 1.5l15.68 32.3H52.9h.58H2.93L18.6 1.5zM95.02 44.25v53.27H11.35V44.25M0 97.6h106.37"/><defs><path id="a" d="M.7 34.97h104.98V46.4H.68z"/></defs><clipPath id="b"><use xlink:href="#a" overflow="visible"/></clipPath><path fill="none" stroke="#666666" stroke-width="3" stroke-miterlimit="10" d="M21 33.37h1.02S23.46 44.1 12.2 44.1C1.64 44.1 2.1 33.37 2.1 33.37h1M41.56 33.37h1.02S44 44.1 32.75 44.1c-10.56 0-10.1-10.73-10.1-10.73h1M62.12 33.37h1S64.58 44.1 53.3 44.1c-10.55 0-10.1-10.73-10.1-10.73h1M82.67 33.37h1s1.45 10.73-9.8 10.73c-10.57 0-10.1-10.73-10.1-10.73h1M103.22 33.37h1.02s1.43 10.73-9.83 10.73c-10.55 0-10.08-10.73-10.08-10.73h1" clip-path="url(#b)"/><path fill="none" stroke="#666666" stroke-width="3" stroke-miterlimit="10" d="M43.02 38.04v59.7M41.77 8.56l-5.9 16.88M29.15 8.56l-9.4 16.88M53.2 8.56v16.88M64.6 8.56l5.9 16.88M77.22 8.56l9.42 16.88M68.24 59.17l-8.3 11.43M77.94 68.52l-8.3 11.43M76.04 59.7l-14.2 19.73M36.73 65.06v8.3"/></svg>