<!DOCTYPE svg PUBLIC "-//W3C//DTD SVG 1.1//EN" "http://www.w3.org/Graphics/SVG/1.1/DTD/svg11.dtd" [
	<!ENTITY ns_flows "http://ns.adobe.com/Flows/1.0/">
]><svg xmlns="http://www.w3.org/2000/svg" width="185" height="38" xmlns:xlink="http://www.w3.org/1999/xlink" viewBox="199.566 352.223 185 38" overflow="visible" enable-background="new 199.566 352.223 185 38"><defs><path id="a" d="M0 0h612v792H0z"/></defs><clipPath id="b"><use xlink:href="#a" overflow="visible"/></clipPath><path fill="none" stroke="#666" stroke-miterlimit="10" d="M211.53 354.03c-6.32 0-11.46 5.15-11.46 11.47 0 2.55 1.62 6.7 4.97 12.7 2.36 4.23 4.7 7.77 4.8 7.92l1.7 2.58 1.7-2.58c.1-.15 2.42-3.7 4.8-7.93 3.33-6 4.96-10.15 4.96-12.7 0-6.32-5.14-11.47-11.47-11.47z" clip-path="url(#b)"/><circle cx="211.533" cy="365.172" r="4.694" fill="none" stroke="#666" stroke-miterlimit="10" clip-path="url(#b)"/><circle cx="252.078" cy="370.625" r="17.625" fill="none" stroke="#666" stroke-miterlimit="10" clip-path="url(#b)"/><path fill="none" stroke="#666" stroke-miterlimit="10" d="M252.33 359.25v12.25M264.08 371.5h-12.25" clip-path="url(#b)"/><circle cx="333.134" cy="371.458" r="17.625" fill="none" stroke="#666" stroke-miterlimit="10" clip-path="url(#b)"/><ellipse cx="333.134" cy="371.458" fill="none" stroke="#666" stroke-miterlimit="10" clip-path="url(#b)" rx="8.167" ry="17.625"/><path fill="none" stroke="#666" stroke-miterlimit="10" d="M317.4 363.33h31.74M315.46 371.5h35.42M317.42 379.67h31.16M288.24 352.33L280.67 386M304.58 356L297 389.68M287.47 355.75l16.34 3.67M285.96 362.45l16.34 3.68M284.45 369.16l16.34 3.68M282.94 375.87l16.34 3.68M281.43 382.58l16.34 3.67" clip-path="url(#b)"/><path fill="#666" d="M364.34 380.2c.48 1.2 1.15 2.17 2.02 2.94s1.9 1.33 3.1 1.7c1.2.37 2.53.58 4 .64v-14.64c-1.2-.27-2.36-.56-3.53-.86-1.17-.3-2.2-.72-3.14-1.26-.95-.53-1.7-1.24-2.28-2.12-.57-.87-.86-2.02-.86-3.45 0-1.42.3-2.62.88-3.6.6-.97 1.35-1.75 2.3-2.34.92-.58 1.97-1 3.13-1.24 1.17-.25 2.32-.37 3.48-.37v-1.78h.82v1.8c1.37.04 2.64.22 3.8.56 1.17.35 2.18.87 3.04 1.56.88.7 1.56 1.6 2.07 2.72.5 1.1.8 2.46.9 4.05h-.84c-.05-1.44-.3-2.67-.78-3.67-.46-1-1.1-1.82-1.9-2.47-.8-.64-1.72-1.12-2.78-1.42-1.07-.3-2.24-.46-3.5-.5v13.74l.33.1c1.37.34 2.66.68 3.9 1 1.2.34 2.27.78 3.17 1.33.9.56 1.62 1.28 2.16 2.2.53.9.8 2.1.8 3.65 0 1.4-.3 2.6-.9 3.58-.6.98-1.4 1.8-2.4 2.44-.97.65-2.08 1.1-3.32 1.4-1.22.3-2.47.43-3.73.43v3.62h-.82v-3.66c-1.56-.05-3-.3-4.32-.7-1.3-.4-2.44-1.04-3.4-1.9-.94-.84-1.67-1.9-2.2-3.18-.5-1.27-.76-2.8-.73-4.58h.82c0 1.67.24 3.1.72 4.3m5.98-23.46c-1.07.22-2.03.6-2.9 1.1-.86.53-1.57 1.22-2.12 2.08-.55.87-.82 1.94-.82 3.23 0 1.24.25 2.24.74 3 .5.77 1.16 1.4 2 1.87.83.48 1.8.87 2.88 1.16 1.08.28 2.2.55 3.35.8V356.4c-1.02 0-2.06.12-3.13.34m7.38 28.4c1.14-.27 2.16-.7 3.07-1.26.9-.58 1.63-1.32 2.2-2.22.56-.9.84-2 .84-3.25 0-1.4-.3-2.52-.87-3.37-.6-.84-1.35-1.52-2.27-2.03-.92-.5-1.94-.9-3.06-1.17-1.13-.28-2.23-.54-3.33-.78v14.47c1.15 0 2.3-.13 3.43-.4" clip-path="url(#b)"/><path fill="none" stroke="#666" stroke-width=".4" stroke-miterlimit="10" d="M364.34 380.2c.48 1.2 1.15 2.17 2.02 2.94s1.9 1.33 3.1 1.7c1.2.37 2.53.58 4 .64v-14.64c-1.2-.27-2.36-.56-3.53-.86-1.17-.3-2.2-.72-3.14-1.26-.95-.53-1.7-1.24-2.28-2.12-.57-.87-.86-2.02-.86-3.45 0-1.42.3-2.62.88-3.6.6-.97 1.35-1.75 2.3-2.34.92-.58 1.97-1 3.13-1.24 1.17-.25 2.32-.37 3.48-.37v-1.78h.82v1.8c1.37.04 2.64.22 3.8.56 1.17.35 2.18.87 3.04 1.56.88.7 1.56 1.6 2.07 2.72.5 1.1.8 2.46.9 4.05h-.84c-.05-1.44-.3-2.67-.78-3.67-.46-1-1.1-1.82-1.9-2.47-.8-.64-1.72-1.12-2.78-1.42-1.07-.3-2.24-.46-3.5-.5v13.74l.33.1c1.37.34 2.66.68 3.9 1 1.2.34 2.27.78 3.17 1.33.9.56 1.62 1.28 2.16 2.2.53.9.8 2.1.8 3.65 0 1.4-.3 2.6-.9 3.58-.6.98-1.4 1.8-2.4 2.44-.97.65-2.08 1.1-3.32 1.4-1.22.3-2.47.43-3.73.43v3.62h-.82v-3.66c-1.56-.05-3-.3-4.32-.7-1.3-.4-2.44-1.04-3.4-1.9-.94-.84-1.67-1.9-2.2-3.18-.5-1.27-.76-2.8-.73-4.58h.82c0 1.67.24 3.1.72 4.3zm5.98-23.46c-1.07.22-2.03.6-2.9 1.1-.86.53-1.57 1.22-2.12 2.08-.55.87-.82 1.94-.82 3.23 0 1.24.25 2.24.74 3 .5.77 1.16 1.4 2 1.87.83.48 1.8.87 2.88 1.16 1.08.28 2.2.55 3.35.8V356.4c-1.02 0-2.06.12-3.13.34zm7.38 28.4c1.14-.27 2.16-.7 3.07-1.26.9-.58 1.63-1.32 2.2-2.22.56-.9.84-2 .84-3.25 0-1.4-.3-2.52-.87-3.37-.6-.84-1.35-1.52-2.27-2.03-.92-.5-1.94-.9-3.06-1.17-1.13-.28-2.23-.54-3.33-.78v14.47c1.15 0 2.3-.13 3.43-.4z" clip-path="url(#b)"/></svg>