<!DOCTYPE svg PUBLIC "-//W3C//DTD SVG 1.1//EN" "http://www.w3.org/Graphics/SVG/1.1/DTD/svg11.dtd" [
	<!ENTITY ns_flows "http://ns.adobe.com/Flows/1.0/">
]><svg xmlns="http://www.w3.org/2000/svg" width="86" height="113" overflow="visible"><circle cx="17.212" cy="70.203" r="10.748" fill="none" stroke="#666666" stroke-width="3" stroke-miterlimit="10" stroke-linecap="round" stroke-linejoin="round"/><path fill="none" stroke="#666666" stroke-width="3" stroke-miterlimit="10" d="M32.92 111.38c-1.4-15.26-7.9-26.8-15.7-26.8-7.8 0-14.3 11.54-15.72 26.8h31.42z" stroke-linecap="round" stroke-linejoin="round"/><circle cx="69.17" cy="70.203" r="10.748" fill="none" stroke="#666666" stroke-width="3" stroke-miterlimit="10" stroke-linecap="round" stroke-linejoin="round"/><path fill="none" stroke="#666666" stroke-width="3" stroke-miterlimit="10" d="M84.88 111.38c-1.4-15.26-7.9-26.8-15.7-26.8-7.82 0-14.3 11.54-15.72 26.8h31.42z" stroke-linecap="round" stroke-linejoin="round"/><circle cx="43.191" cy="12.247" r="10.747" fill="none" stroke="#666666" stroke-width="3" stroke-miterlimit="10" stroke-linecap="round" stroke-linejoin="round"/><path fill="none" stroke="#666666" stroke-width="3" stroke-miterlimit="10" d="M58.9 53.42c-1.4-15.26-7.9-26.8-15.7-26.8-7.8 0-14.3 11.54-15.72 26.8H58.9z" stroke-linecap="round" stroke-linejoin="round"/><path fill="none" stroke="#666666" stroke-width="3" stroke-miterlimit="10" d="M43.2 61.78V74.8M43.28 74.63l-9.83 8.55M43.1 74.63l9.83 8.55"/></svg>