<!DOCTYPE svg PUBLIC "-//W3C//DTD SVG 1.1//EN" "http://www.w3.org/Graphics/SVG/1.1/DTD/svg11.dtd" [
	<!ENTITY ns_flows "http://ns.adobe.com/Flows/1.0/">
]><svg xmlns="http://www.w3.org/2000/svg" width="134" height="80" overflow="visible"><circle cx="113.094" cy="21.084" r="19.584" fill="none" stroke="#666666" stroke-width="3" stroke-miterlimit="10"/><path fill="none" stroke="#666666" stroke-width="3" stroke-miterlimit="10" d="M34.41 54.62c-9.37-.75-16.82-8.67-16.82-18.24 0-9.4 7.2-17.21 16.36-18.18M33.94 18.2c.64-.07 1.28-.1 1.93-.1h38.2c5.4 0 10.3 2.38 13.65 6.15M78.33 54.67H53.76M53.5 18.85l.23 35.65s-1.15-9.88-10.72-9.88c-8.94 0-8.67 10.05-8.67 10.05H12.76c-6.2 0-11.26 5.07-11.26 11.26s5.07 11.25 11.26 11.25H42.5c6.2 0 11.26-5.06 11.26-11.25 0-3.64.08-8.55.1-12.46M87.2 23.78c1.42 1.12 2.58 2.58 3.34 4.34l14.83 34.36c2.46 5.68-.18 12.34-5.87 14.8s-12.34-.2-14.8-5.88c0 0-3.74-8.68-7.47-17.3"/></svg>