<!DOCTYPE svg PUBLIC "-//W3C//DTD SVG 1.1//EN" "http://www.w3.org/Graphics/SVG/1.1/DTD/svg11.dtd" [
	<!ENTITY ns_flows "http://ns.adobe.com/Flows/1.0/">
]><svg xmlns="http://www.w3.org/2000/svg" width="28" height="48" overflow="visible"><path fill="#989898" d="M0 0h25v23.83H0z"/><path fill="#fff" d="M10.72 5.8C10 7.33 9.4 8.63 9.36 8.66c-.03.04-5.28.88-6.1.98 0 0 0 .1 0 .2 0 .2.1.33 1 1.26.55.58 1.5 1.6 2.15 2.25l1.16 1.2-.5 3.06c-.28 1.7-.5 3.14-.5 3.22 0 .12.02.14.25.14.22 0 .64-.2 2.83-1.42 1.4-.78 2.6-1.42 2.62-1.42.02 0 1.2.64 2.6 1.42 2.2 1.22 2.63 1.42 2.84 1.42.22 0 .25-.02.25-.14 0-.08-.23-1.52-.5-3.2l-.52-3.07 1.16-1.2c.62-.66 1.6-1.67 2.15-2.24.9-.92 1-1.05 1-1.24 0-.1 0-.2 0-.2-.84-.1-6.1-.95-6.12-1-.02-.03-.63-1.32-1.35-2.87l-1.32-2.84H12.04L10.72 5.8z"/><path fill="#1F9095" d="M0 24h25v23.83H0z"/><path fill="#fff" d="M10.72 29.8c-.72 1.54-1.33 2.84-1.36 2.87-.03.04-5.28.88-6.1.98 0 0 0 .1 0 .2 0 .2.1.33 1 1.27.55.56 1.5 1.57 2.15 2.23l1.16 1.2-.5 3.07c-.28 1.68-.5 3.12-.5 3.2 0 .12.02.14.25.14.22 0 .64-.2 2.83-1.42 1.4-.78 2.6-1.42 2.62-1.42.02 0 1.2.64 2.6 1.42 2.2 1.22 2.63 1.42 2.84 1.42.22 0 .25-.02.25-.14 0-.08-.23-1.52-.5-3.2l-.52-3.07 1.16-1.2c.62-.66 1.6-1.67 2.15-2.23.9-.93 1-1.07 1-1.26 0-.1 0-.2 0-.2-.84-.1-6.1-.95-6.12-1-.02-.02-.63-1.32-1.35-2.87l-1.32-2.84H12.04l-1.32 2.83z"/></svg>