<!DOCTYPE svg PUBLIC "-//W3C//DTD SVG 1.1//EN" "http://www.w3.org/Graphics/SVG/1.1/DTD/svg11.dtd" [
	<!ENTITY ns_flows "http://ns.adobe.com/Flows/1.0/">
]><svg xmlns="http://www.w3.org/2000/svg" width="134" height="94" overflow="visible"><path fill="none" stroke="#666666" stroke-width="3" stroke-miterlimit="10" d="M93.78 54.76V11.5c0-5.52-4.47-10-10-10H11.5c-5.52 0-10 4.48-10 10v39.54c0 5.52 4.48 10 10 10h6.05v17.4l17.4-17.4H80.6M24.18 16.5H81.8M24.18 26.6H81.8M24.18 46.8h40.8M24.18 36.7h40.8M16.63 16.5H12.7M16.63 26.6H12.7M16.63 36.7H12.7M16.63 46.8H12.7"/><path fill="none" stroke="#666666" stroke-width="3" stroke-miterlimit="10" d="M89.12 54.26h29.9c4.42 0 8 3.6 8 8v11.17c0 4.42-3.58 8-8 8H98.34l-8.65 8.65v-8.65h-.58c-4.42 0-8-3.58-8-8V62.26c0-4.4 3.58-8 8-8zM118.7 64.68H89.44M118.7 71.08H89.44"/><path fill="none" stroke="#666666" stroke-width="3" stroke-miterlimit="10" d="M110.6 13.16h17.83c2.2 0 4 1.8 4 4v7.3c0 2.2-1.8 4-4 4h-12.15l-4.86 4.86v-4.86h-.83c-2.22 0-4-1.8-4-4v-7.3c0-2.2 1.78-4 4-4z"/></svg>