<!DOCTYPE svg PUBLIC "-//W3C//DTD SVG 1.1//EN" "http://www.w3.org/Graphics/SVG/1.1/DTD/svg11.dtd" [
	<!ENTITY ns_flows "http://ns.adobe.com/Flows/1.0/">
]><svg xmlns="http://www.w3.org/2000/svg" width="122" height="119" overflow="visible"><path fill="none" stroke="#666666" stroke-width="3" stroke-miterlimit="10" d="M43.64 72.5L62.2 91.07M62.2 72.5L43.65 91.07"/><circle cx="37.51" cy="104.146" r="13.619" fill="none" stroke="#666666" stroke-width="3" stroke-miterlimit="10"/><circle cx="37.509" cy="104.146" r="8.462" fill="none" stroke="#666666" stroke-width="3" stroke-miterlimit="10"/><circle cx="68.335" cy="104.146" r="13.619" fill="none" stroke="#666666" stroke-width="3" stroke-miterlimit="10"/><circle cx="68.334" cy="104.146" r="8.462" fill="none" stroke="#666666" stroke-width="3" stroke-miterlimit="10"/><path fill="none" stroke="#666666" stroke-width="3" stroke-miterlimit="10" d="M57.13 44.13C62.96 33.2 76.8 7.3 76.8 7.3S53.57-7.24 27.33 9.72C1.1 26.68 1.5 49.08 1.5 49.08"/><path fill="none" stroke="#666666" stroke-width="3" stroke-miterlimit="10" d="M101.22 72.3H5.94c-2.44 0-4.44-2-4.44-4.44V48.68c0-2.45.5-4.44.5-4.44h99.22c2.44 0 4.44 2 4.44 4.44v19.17c0 2.45-2 4.45-4.44 4.45zM96.62 44.15c10.2-6.23 20.86-12.72 20.86-12.72l2.73 4.48s-7.44 4.55-15.85 9.68"/></svg>