<!DOCTYPE svg PUBLIC "-//W3C//DTD SVG 1.1//EN" "http://www.w3.org/Graphics/SVG/1.1/DTD/svg11.dtd" [
	<!ENTITY ns_flows "http://ns.adobe.com/Flows/1.0/">
]><svg xmlns="http://www.w3.org/2000/svg" width="100" height="135" overflow="visible"><path fill="none" stroke="#666666" stroke-width="3" stroke-miterlimit="10" d="M59.18 134.3c.44-5.24.95-11.34 3.75-15.1 3.32-4.46 8.44-7.5 11.62-12.2C81.8 96.23 88.9 85.4 96 74.53c3.54-5.43 3.06-10.74-1.04-13.7-4.14-2.96-9.26-1.65-13.24 3.46-1.37 1.76-2.64 3.6-3.97 5.4-1.32 1.8-2.67 3.57-4 5.34M72.82 45.16c0-7.4 0-14.82 0-22.23 0-1.76.06-3.54-.2-5.26-.7-4.6-3.6-7.02-7.8-6.7-3.93.3-6.33 2.98-6.37 7.5-.07 10.22-.02 20.45-.03 30.68 0 2.43.1 4.94-2.58 6.08-2.7-1.93-2.05-5-2.05-7.86-.02-12.3 0-24.62-.03-36.93-.02-5.76-2.52-8.85-7.05-8.94-4.76-.1-7.3 3.04-7.32 9.08-.02 13.1 0 26.22-.02 39.32 0 1.35.2 2.9-.45 4.13-.36.68-1.06 1.24-1.84 1.23-.8 0-1.47-.58-1.83-1.27-.67-1.33-.5-3.1-.5-4.54-.03-11.5 0-23-.03-34.52-.02-5.76-2.54-8.78-7.15-8.75-4.55.02-7.2 3.16-7.22 8.82-.05 12.8-.02 25.58-.02 38.37 0 1.1.34 6.7-1.9 6.7-2.06 0-2.36-2.16-2.43-3.3-.28-4.8-.14-9.6-.15-14.4 0-5.1.14-10.22-.1-15.33-.17-4.1-2.62-6.52-6.74-6.63-4.05-.1-6.63 1.96-7.3 6.1-.1.63-.2 1.26-.2 1.9.06 21.57-.3 43.16.38 64.72.4 13.1 10.35 23.04 12.44 35.7.3 1.8.57 3.63.8 5.48M73 44.96c-3.16 3.65-6.56 7.07-10.18 10.26-2.02 1.78-4.6 4.74-7.28 5.3-2.52.5-5.22-.02-7.77.62-5.8 1.48-11.6 3.03-17.4 4.6-2.9.77-4.37 2.75-3.86 5.03.52 2.3 2.7 3.43 5.64 2.9 1.02-.2 2.03-.44 3.04-.65 1.2-.25 2.42-.48 3.63-.73.03.02.03.02.05.04-5.46 6.12-10.93 12.23-16.38 18.34-.54.6-1.12 1.2-1.56 1.88-1.16 1.8-.9 3.53.64 4.72 1.45 1.1 3.1.92 4.5-.63 3.18-3.5 6.32-7.05 9.47-10.58.76-.84 1.5-1.74 2.78-1.3.33 1.5-.83 2.35-1.72 3.35-3.8 4.24-7.6 8.48-11.37 12.74-1.78 2-1.86 3.83-.33 5.26 1.6 1.5 3.46 1.2 5.32-.88 4.04-4.52 8.07-9.04 12.12-13.56.4-.47.82-1.06 1.42-1.3.34-.1.75-.1 1.02.16.26.24.32.65.23 1-.18.66-.8 1.22-1.23 1.7-3.53 4-7.1 7.95-10.63 11.93-1.76 2-1.83 3.82-.22 5.23 1.57 1.38 3.45 1.12 5.2-.83 3.96-4.4 7.9-8.82 11.83-13.23.35-.4 1.95-2.42 2.73-1.72.7.62.15 1.46-.18 1.88-1.38 1.73-2.9 3.35-4.38 5-1.57 1.77-3.2 3.5-4.7 5.33-1.2 1.47-1.1 3.06.3 4.37 1.35 1.28 2.88 1.36 4.38.14.23-.2.47-.37.66-.6 6.63-7.46 13.4-14.8 19.8-22.44 3.32-3.95 3.55-9.22 5.5-13.78M72.86 45.66c-.1-.36-.13-.74-.08-1.1"/></svg>