<!DOCTYPE svg PUBLIC "-//W3C//DTD SVG 1.1//EN" "http://www.w3.org/Graphics/SVG/1.1/DTD/svg11.dtd" [
	<!ENTITY ns_flows "http://ns.adobe.com/Flows/1.0/">
]><svg xmlns="http://www.w3.org/2000/svg" width="100" height="115" overflow="visible"><ellipse cx="38.844" cy="26.911" fill="none" stroke="#666666" stroke-width="3" stroke-miterlimit="10" stroke-linecap="round" stroke-linejoin="round" rx="26.021" ry="25.411"/><path fill="none" stroke="#666666" stroke-width="3" stroke-miterlimit="10" d="M76.2 113.58c-4.5-33.12-19.5-57.5-37.36-57.5C21 56.09 6 80.47 1.5 113.6h74.7z" stroke-linecap="round" stroke-linejoin="round"/><ellipse cx="80.398" cy="69.241" fill="none" stroke="#666666" stroke-width="3" stroke-miterlimit="10" stroke-linejoin="round" stroke-linecap="round" rx="12.723" ry="12.425" transform="matrix(1 -.007 .007 1 -.519 .607)"/><path fill="#fff" fill-rule="evenodd" d="M98.98 113.48C96.66 97.3 89.24 85.44 80.5 85.5c-8.72.07-15.97 12.04-18.04 28.26l36.52-.28z" clip-rule="evenodd"/><path fill="none" stroke="#666666" stroke-width="3" stroke-miterlimit="10" d="M98.98 113.48C96.66 97.3 89.24 85.44 80.5 85.5c-8.72.07-15.97 12.04-18.04 28.26l36.52-.28z" stroke-linecap="round" stroke-linejoin="round"/></svg>