<!DOCTYPE svg PUBLIC "-//W3C//DTD SVG 1.1//EN" "http://www.w3.org/Graphics/SVG/1.1/DTD/svg11.dtd" [
	<!ENTITY ns_flows "http://ns.adobe.com/Flows/1.0/">
]><svg xmlns="http://www.w3.org/2000/svg" width="119" height="91" overflow="visible"><path fill="#666666" d="M63.27 62.25l.1-1.8c-1.6-.02-3.22-.34-4.1-.78l.86-1.2c.87.43 2.2.77 3.7.77 1.88 0 3.1-.73 3.03-1.74-.07-.98-1.03-1.6-2.75-2.12-2.25-.72-3.5-1.53-3.22-3.08.28-1.48 1.53-2.6 3.18-2.87l.08-1.8h.98l.02 1.73c1.05.04 1.8.32 2.35.62l-.33 1.18c-.42-.22-1.22-.6-2.4-.6-1.43 0-2.06.8-2.13 1.52-.1.93.64 1.4 2.5 2.03 2.32.76 3.63 1.7 3.87 3.27.23 1.4-1.08 2.73-3.9 3.03l.02 1.85h-1.85z"/><circle cx="64.566" cy="55.06" r="10.378" fill="none" stroke="#666666" stroke-width="3" stroke-miterlimit="10" stroke-linecap="round" stroke-linejoin="round"/><path fill="none" stroke="#666666" stroke-width="3" stroke-miterlimit="10" d="M107.7 60.1c-2.24 4.9-5.85 10.1-10.42 13.7M80.67 82.2c-4.82 1.37-10 2.12-15.43 2.12-4.93 0-9.67-.62-14.1-1.77M34.53 75.2c-8.75-6.5-14.4-16.17-14.4-26.34 0-19.58 20.2-35.46 45.1-35.46 4.1 0 8.08.43 11.86 1.23M93.73 21.37c7.3 4.68 12.7 11.12 15.15 18.5M108.7 38.2c1.56-.1 8.38-2.37 8.38-2.37l-4.12 24.96h-6.54M33.86 73.88v15.6h14.7l4.18-7.8M97.84 72.6v16.87h-14.7l-4.17-7.8M76.33 16.03S79.3 2.93 98.9 1.63l-4.68 21.2"/><path fill="none" stroke="#666666" stroke-width="3" stroke-miterlimit="10" d="M75.1 25.16H55.7c-.87 0-1.58-.7-1.58-1.56v-1.12c0-.86.7-1.57 1.57-1.57h19.4c.85 0 1.55.72 1.55 1.58v1.1c0 .88-.7 1.58-1.56 1.58z"/><path fill="#666666" d="M99.56 40.03c0 1.72-1.4 3.1-3.1 3.1s-3.1-1.38-3.1-3.1 1.38-3.1 3.1-3.1 3.1 1.4 3.1 3.1"/><path fill="none" stroke="#666666" stroke-width="3" stroke-miterlimit="10" d="M.53 35.02c5.42 2.03 11.65 4.27 15.2-2.03 1.35-2.43 3.8-9.76-.68-10.5-3.56-.58-5.8 2.45-5.86 5.75-.07 3 1.27 6.22 3.62 8.13 2.42 1.97 5.5 2.92 8.6 3.34"/></svg>