<!DOCTYPE svg PUBLIC "-//W3C//DTD SVG 1.1//EN" "http://www.w3.org/Graphics/SVG/1.1/DTD/svg11.dtd" [
	<!ENTITY ns_flows "http://ns.adobe.com/Flows/1.0/">
]><svg xmlns="http://www.w3.org/2000/svg" width="131" height="86" overflow="visible"><path fill="none" stroke="#666666" stroke-width="3" stroke-miterlimit="10" d="M7.4 37.78c-1.1 1.5-1.74 3.12-2.1 4.87-.7 3.53-.53 7 1 10.3 0 .03 0 .05.02.06.4.93 1 1.53 1.96 1.97 17.74 8.1 35.46 16.24 53.2 24.37.75.35 1.52.67 2.27 1.05.33.16.57.1.87-.06 6.88-3.6 13.77-7.17 20.65-10.75 13.32-6.94 26.64-13.88 39.97-20.8.62-.3.94-.65.82-1.34-.02-.14 0-.28 0-.55.72.48 1.37.9 2 1.33.07.05.08.22.07.34 0 .7 0 1.4-.1 2.1 0 .2-.24.42-.44.52-4.52 2.4-9.03 4.77-13.55 7.15C98.1 66.77 82.13 75.2 66.18 83.62c-.43.23-.78.62-1.22.98-1.18-.53-2.4-1.1-3.64-1.67-18.55-8.5-37.1-17.03-55.64-25.56-.4-.2-.8-.5-1.07-.86-1.66-2.13-2.53-4.6-2.9-7.27-.52-3.8-.05-7.5 1.42-11.05.5-1.24 1.2-2.16 2.53-2.63 1.3-.46 2.54-1.15 3.82-1.72.3-.14.67-.2.98-.33.38-.18.7-.44 1.08-.62 1.45-.68 2.92-1.34 4.38-2 4.77-2.2 9.54-4.4 14.3-6.57.14-.06 49.95-22.6 49.95-22.6s41.56 24.8 47.4 28.02c-1.02.5-2 1-3 1.48C104.2 41.1 83.85 51 63.5 60.9c-.52.27-.93.26-1.45.04C44 53.28 25.95 45.64 7.9 37.98c-.15-.07-.3-.13-.5-.2zM64.85 65.42l61.42-30.6M64.85 69.8l61.42-30.58M64.85 74.2l61.42-30.6"/></svg>