<!DOCTYPE svg PUBLIC "-//W3C//DTD SVG 1.1//EN" "http://www.w3.org/Graphics/SVG/1.1/DTD/svg11.dtd" [
	<!ENTITY ns_flows "http://ns.adobe.com/Flows/1.0/">
]><svg xmlns="http://www.w3.org/2000/svg" width="130" height="101" overflow="visible"><path fill="none" stroke="#666666" stroke-width="3" stroke-miterlimit="10" d="M67.35 4.2h61.5v35.96h-61.5zM94.55 24h20.1M94.55 28.3h20.1M94.55 32.58h20.1"/><path fill="none" stroke="#666666" stroke-width="3" stroke-miterlimit="10" d="M117.02 8.34h7.4v9.16H117zM116.5 11c-1.07.36-2.24.73-3.6.75-1.92.04-3.54-.6-4.6-1.3-1.08-.7-1.9-1.5-3.4-2.02-1.5-.53-4.05-.63-5.16.05M116.5 15.58c-1.07.35-2.24.7-3.6.74-1.92.04-3.54-.62-4.6-1.3-1.08-.7-1.9-1.5-3.4-2.03s-4.05-.64-5.16.05M70.6 9.52h10.57"/><path fill="none" stroke="#666666" stroke-width="3" stroke-miterlimit="10" d="M16.14 39.8l22.4-23.26 8.17 7.86-22.4 23.27z"/><path fill="none" stroke="#666666" stroke-width="3" stroke-miterlimit="10" d="M2.12 54.37L6.7 49.6l8.16 7.87-4.58 4.75zM2.12 45.06L6.7 40.3l17.46 16.82-4.58 4.75z"/><path fill="none" stroke="#666666" stroke-width="3" stroke-miterlimit="10" d="M2.85 36.46l4.58-4.76 25.3 24.37-4.57 4.75zM60.6 9.98L56 14.73l-8.15-7.85 4.58-4.76zM60.6 19.3L56 24.03 38.56 7.24l4.58-4.77zM59.86 27.9l-4.58 4.75-25.3-24.37 4.57-4.75z"/><path fill="none" stroke="#666666" stroke-width="3" stroke-miterlimit="10" d="M28.05 94.42v5.18M127.9 94.42v5.18M112.38 71.36c3.25 4.97 14.3 21.8 14.3 21.8h-49 .57-49s7.94-12.1 12.34-18.8"/><path fill="none" stroke="#666666" stroke-width="3" stroke-miterlimit="10" d="M39.63 42.05L42.3 85.2h17.27l2.6-43.15zM26.56 99.2H129.4"/><path fill="none" stroke="#666666" stroke-width="3" stroke-miterlimit="10" d="M66.72 65.03s2.6 8.92 7.28 13c4.5 3.9 10.75 5.67 17.04 5.67 6.28 0 12.47-1.84 17.03-5.68 4.55-3.82 7.3-13 7.3-13H66.7zM40.03 57.16h21.15M100.38 48.02c.58.77 1.18 1.6 1.23 2.57.07 1.36-1 2.53-2.16 3.3-1.14.76-2.45 1.34-3.32 2.4-.86 1.1-1.03 2.9.1 3.7M107.93 48.02c.58.77 1.18 1.6 1.23 2.57.07 1.36-1.02 2.53-2.16 3.3-1.15.76-2.46 1.34-3.32 2.4-.87 1.1-1.04 2.9.1 3.7M60.17 69.63h8.94"/></svg>