<!DOCTYPE svg PUBLIC "-//W3C//DTD SVG 1.1//EN" "http://www.w3.org/Graphics/SVG/1.1/DTD/svg11.dtd" [
	<!ENTITY ns_flows "http://ns.adobe.com/Flows/1.0/">
]><svg xmlns="http://www.w3.org/2000/svg" width="116" height="103" overflow="visible"><path fill="none" stroke="#666666" stroke-width="3.282" stroke-miterlimit="10" d="M50.45 3.05v99.3"/><path fill="#666666" d="M47.24 3.2c0-1.76 1.43-3.2 3.2-3.2 1.78 0 3.2 1.44 3.2 3.2 0 1.78-1.42 3.22-3.2 3.22-1.77 0-3.2-1.44-3.2-3.2"/><path fill="none" stroke="#666666" stroke-width="3.282" stroke-miterlimit="10" d="M50.45 13.23h64.4v32.58h-64.4zM74.06 61.1v41.24"/><path fill="#666666" d="M70.85 61.27c0-1.78 1.44-3.2 3.2-3.2s3.22 1.42 3.22 3.2-1.44 3.2-3.2 3.2-3.22-1.43-3.22-3.2"/><path fill="none" stroke="#666666" stroke-width="3.282" stroke-miterlimit="10" d="M74.06 68.06h27.13v13.72H74.05zM3.2 31.7v70.96"/><path fill="#666666" d="M0 31.86c0-1.77 1.44-3.2 3.2-3.2s3.22 1.43 3.22 3.2c0 1.77-1.44 3.2-3.2 3.2S0 33.64 0 31.87"/><path fill="none" stroke="#666666" stroke-width="3.282" stroke-miterlimit="10" d="M3.2 41.05h38.77v19.6H3.2z"/></svg>