<!DOCTYPE svg PUBLIC "-//W3C//DTD SVG 1.1//EN" "http://www.w3.org/Graphics/SVG/1.1/DTD/svg11.dtd" [
	<!ENTITY ns_flows "http://ns.adobe.com/Flows/1.0/">
]><svg xmlns="http://www.w3.org/2000/svg" width="97" height="132" overflow="visible"><path fill="none" stroke="#666666" stroke-width="3" stroke-miterlimit="10" d="M94.03 102.26c-4.2 6.98-9.7 12.67-17.3 15.86-3.8 1.6-8.06 2.15-11.95.46-1.6-.68-3.03-1.9-3.6-3.55-.8-2.28.17-4.97 1.2-7.03.54-1.1 1.25-2.07 2-3.02.2-.25.75-1.06 1.28-1.74M54.8 97.84c-4.45-1.83-7.43-4.86-9.87-8.9-1.9-3.2-5.15-10.45-10.02-6.98-1.83 1.3-3.07 4.93-2.83 7.33.36 3.45 2.3 6.75 4.02 11.3-5.28 1.3-10.54 2.64-15.8 3.97-.15.47-.3.95-.43 1.43 4.78 1.43 9.48 3.33 14.4 4.22 4.88.9 9.77.44 14.64 1 3.4.4 6.52 2.4 7.52 5.8 1.36 4.66-.5 8.98-6.14 11.04-4.4 1.6-9.5 2.5-14.1 2-13.26-1.45-25.42-5.4-32.17-18.5-5.02-9.78-1.53-19.02 2.1-27.97 2.93-7.18 6.7-14.04 10.56-20.78C21 55.26 27.4 51.02 36.63 51.35c10.03.36 20.08.2 30.12.03 6.66-.1 12.02 2.5 15.4 7.96 4.8 7.76 9.42 15.72 13.25 24"/><path fill="none" stroke="#666666" stroke-width="3" stroke-miterlimit="10" d="M49.09 46.52c-12.47-.17-22.37-10.4-22.12-22.82.25-11.93 10.67-22.27 22.38-22.2 12.4.08 22.66 10.77 22.36 23.33-.28 12.1-10.46 21.87-22.63 21.7z"/><circle cx="64.341" cy="91.326" r="11.634" fill="none" stroke="#666666" stroke-width="3" stroke-miterlimit="10"/></svg>