<!DOCTYPE svg PUBLIC "-//W3C//DTD SVG 1.1//EN" "http://www.w3.org/Graphics/SVG/1.1/DTD/svg11.dtd" [
	<!ENTITY ns_flows "http://ns.adobe.com/Flows/1.0/">
]><svg xmlns="http://www.w3.org/2000/svg" width="131" height="100" xmlns:xlink="http://www.w3.org/1999/xlink" overflow="visible"><path fill="none" stroke="#666666" stroke-width="3" stroke-miterlimit="10" d="M7.24 79l88.27-.07V28.4l5.62.02v55.84l-93.84.1zM35.06 84.26H95.6v5.05H35.07zM8.84 84.26h92.28s-.1-4-.1-4.2h28.64V50.8l-12.2-14.74H100.6"/><circle cx="115.553" cy="81.525" r="9.051" fill="none" stroke="#666666" stroke-width="3" stroke-miterlimit="10"/><circle cx="22.1" cy="81.525" r="9.05" fill="none" stroke="#666666" stroke-width="3" stroke-miterlimit="10"/><path fill="none" d="M128.6 100.05v-19.8L14.3 84.48h-.4L0 84.27l.2 15.78"/><defs><path id="a" d="M104.47 39.43h22.45v13.12h-22.45z"/></defs><clipPath id="b"><use xlink:href="#a" overflow="visible"/></clipPath><path fill="none" stroke="#666666" stroke-width="3" stroke-miterlimit="10" d="M105.66 41.32h9.98l7.5 9.9h-17.48s.2-9.7 0-9.9z" clip-path="url(#b)"/><path fill="none" stroke="#666666" stroke-width="3" stroke-miterlimit="10" d="M105.8 55.92v4.9M48.3 1.05L4.03 46.02l8 7.37L48.23 16M47.4 1.9l43.56 43.9-8 7.38L47.4 16.92M47.6 78.93H16.24v-30.1M47.4 78.93h31.35v-30.1"/><path fill="none" stroke="#666666" stroke-width="3" stroke-miterlimit="10" d="M24.98 52.83h12.1v26.1h-12.1zM48.76 44.83H65.4v12.42H48.75zM16.34 33.37c0 .35-.2.18-.2.18V12.5h12.1v8.9"/></svg>