<!DOCTYPE svg PUBLIC "-//W3C//DTD SVG 1.1//EN" "http://www.w3.org/Graphics/SVG/1.1/DTD/svg11.dtd" [
	<!ENTITY ns_flows "http://ns.adobe.com/Flows/1.0/">
]><svg xmlns="http://www.w3.org/2000/svg" width="114" height="91" overflow="visible"><path fill="none" stroke="#666666" stroke-width="3.06" stroke-miterlimit="10" d="M103.24 2.2l-90.7-.66L1.87 54.18h110.1zM1.4 65.88h112.5M1.4 77.57h112.5M1.4 89.27h112.5"/><circle cx="57.89" cy="29.158" r="17.218" fill="none" stroke="#666666" stroke-width="3.06" stroke-miterlimit="10"/><path fill="#666666" d="M56.4 40.63l.15-3.1c-2.76-.03-5.52-.58-7.02-1.34l1.46-2.06c1.5.73 3.78 1.3 6.34 1.3 3.24.02 5.34-1.24 5.2-2.98-.1-1.7-1.76-2.73-4.7-3.65-3.9-1.2-6.05-2.6-5.56-5.28.47-2.54 2.63-4.46 5.45-4.92l.14-3.1h1.7l.03 2.97c1.8.07 3.08.56 4.04 1.08l-.56 2c-.72-.35-2.1-1.03-4.13-1.03-2.45 0-3.52 1.4-3.65 2.63-.17 1.6 1.1 2.4 4.28 3.5 4 1.28 6.26 2.87 6.67 5.6.37 2.4-1.87 4.67-6.7 5.2v3.18H56.4z"/></svg>