<!DOCTYPE svg PUBLIC "-//W3C//DTD SVG 1.1//EN" "http://www.w3.org/Graphics/SVG/1.1/DTD/svg11.dtd" [
	<!ENTITY ns_flows "http://ns.adobe.com/Flows/1.0/">
]><svg xmlns="http://www.w3.org/2000/svg" width="101" height="127" overflow="visible"><circle cx="50.302" cy="86.559" r="10.292" fill="none" stroke="#666666" stroke-width="3" stroke-miterlimit="10" stroke-linecap="round" stroke-linejoin="round"/><path fill="none" stroke="#666666" stroke-width="3" stroke-miterlimit="10" d="M65.35 126C64 111.36 57.78 100.3 50.3 100.3c-7.47 0-13.7 11.05-15.04 25.67h30.1z" stroke-linecap="round" stroke-linejoin="round"/><circle cx="84.058" cy="86.559" r="10.292" fill="none" stroke="#666666" stroke-width="3" stroke-miterlimit="10" stroke-linecap="round" stroke-linejoin="round"/><path fill="none" stroke="#666666" stroke-width="3" stroke-miterlimit="10" d="M99.1 126c-1.35-14.63-7.57-25.68-15.04-25.68-7.48 0-13.7 11.05-15.05 25.67h30.1z" stroke-linecap="round" stroke-linejoin="round"/><circle cx="16.546" cy="86.559" r="10.292" fill="none" stroke="#666666" stroke-width="3" stroke-miterlimit="10" stroke-linecap="round" stroke-linejoin="round"/><path fill="none" stroke="#666666" stroke-width="3" stroke-miterlimit="10" d="M31.6 126C30.23 111.36 24 100.3 16.54 100.3c-7.48 0-13.7 11.05-15.05 25.67h30.1z" stroke-linecap="round" stroke-linejoin="round"/><path fill="none" stroke="#666666" stroke-width="3" stroke-miterlimit="10" d="M56.04 54.1h4.36-.6.33l13.95 13.94V54.1h1.96-1.4 1.4c6.55 0 11.87-5.32 11.87-11.88V13.37C87.9 6.8 82.6 1.5 76.05 1.5H25.72c-6.55 0-11.86 5.3-11.86 11.87v28.85c0 6.56 5.3 11.87 11.86 11.87h1.96v13.94L41.63 54.1h3.65l5.6 13.4 5.16-13.4z"/><path fill="none" stroke="#666666" stroke-width="3" stroke-miterlimit="10" d="M23.75 18.43H78M23.75 28.52H78M23.75 38.62h38.43"/></svg>