<!DOCTYPE svg PUBLIC "-//W3C//DTD SVG 1.1//EN" "http://www.w3.org/Graphics/SVG/1.1/DTD/svg11.dtd" [
	<!ENTITY ns_flows "http://ns.adobe.com/Flows/1.0/">
]><svg xmlns="http://www.w3.org/2000/svg" width="138" height="80" overflow="visible"><path fill="none" stroke="#666666" stroke-width="3" stroke-miterlimit="10" d="M2 71.82v6.95M136.05 71.82v6.95M115.22 40.86c4.38 6.67 19.2 29.27 19.2 29.27H68.66h.76H3.63S14.27 53.9 20.2 44.9"/><path fill="none" stroke="#666666" stroke-width="3" stroke-miterlimit="10" d="M17.55 1.5l3.57 57.95H44.3L47.84 1.5zM0 78.25h138.08"/><path fill="none" stroke="#666666" stroke-width="3" stroke-miterlimit="10" d="M53.91 32.36c.02 0 3.5 11.97 9.8 17.44 6.02 5.26 14.43 7.63 22.87 7.63 8.44 0 16.75-2.47 22.87-7.63 6.1-5.13 9.78-17.44 9.78-17.44h-65.3zM18.08 21.8h28.4M99.1 9.52c.8 1.03 1.6 2.16 1.66 3.45.1 1.85-1.36 3.4-2.9 4.43s-3.3 1.82-4.46 3.26c-1.16 1.44-1.4 3.88.12 4.94M109.25 9.52c.78 1.03 1.6 2.16 1.65 3.45.1 1.85-1.36 3.4-2.9 4.43s-3.3 1.82-4.46 3.26c-1.16 1.44-1.4 3.88.12 4.94M45.13 38.53h12"/></svg>