<!DOCTYPE svg PUBLIC "-//W3C//DTD SVG 1.1//EN" "http://www.w3.org/Graphics/SVG/1.1/DTD/svg11.dtd" [
	<!ENTITY ns_flows "http://ns.adobe.com/Flows/1.0/">
]><svg xmlns="http://www.w3.org/2000/svg" width="84" height="121" overflow="visible"><path fill="none" stroke="#666666" stroke-width="3" stroke-miterlimit="10" d="M74.6 119.08H9.5c-4.4 0-8-3.6-8-8V22.5c0-4.4 3.6-8 8-8h65.1c4.4 0 8 3.6 8 8v88.58c0 4.4-3.6 8-8 8zM63.42 27.7H20.7c-1.1 0-2-.9-2-2v-9.2c0-1.1.9-2 2-2H63.4c1.1 0 2 .9 2 2v9.2c0 1.1-.9 2-2 2zM43.36 14.29h-2.6c-2.8-.02-5.1-2.3-5.1-5.1V6.58c0-2.8 2.3-5.08 5.1-5.08h2.6c2.8 0 5.1 2.3 5.1 5.08V9.2c0 2.8-2.3 5.1-5.1 5.1zM18.63 87.53h46.85M18.63 95.4h46.85M18.63 103.25h46.85M42.74 62.75c-1.14 0-1.6-.46-2.37.64-.6.85-.78 2.06-.94 3.06-.3 1.9-.4 3.86-.35 5.8.04 2.06.32 3.5-1.74 4.85-.6.4-1.52.36-2.02-.18-3.12-3.46-3.8-6.23-4.4-10.68-.3-2.23-.04-4.67-.86-6.76-1.65-4.2-4.85-6.68-4.33-11.6.1-1 .26-2.02.8-2.86 2.52-3.96 10.17-2.95 13.7-1.48.58.24 1.17.53 1.77.75.4.14.4-.14.75-.4M42.12 44.3c.6-.23 1.18-.52 1.77-.76 3.5-1.47 11.16-2.48 13.7 1.48.52.84.67 1.86.78 2.85.52 4.93-2.68 7.42-4.33 11.6-.82 2.1-.56 4.54-.87 6.77-.6 4.45-1.27 7.22-4.4 10.68-.5.54-1.4.6-2 .2-2.07-1.35-1.8-2.8-1.75-4.87.04-1.47.05-10.9-3.13-9.6"/></svg>