<!DOCTYPE svg PUBLIC "-//W3C//DTD SVG 1.1//EN" "http://www.w3.org/Graphics/SVG/1.1/DTD/svg11.dtd" [
	<!ENTITY ns_flows "http://ns.adobe.com/Flows/1.0/">
]><svg xmlns="http://www.w3.org/2000/svg" width="107" height="108" overflow="visible"><ellipse cx="82.387" cy="51.866" fill="none" stroke="#666666" stroke-width="3" stroke-miterlimit="10" stroke-linecap="round" stroke-linejoin="round" rx="16.155" ry="15.775"/><path fill="none" stroke="#666666" stroke-width="3" stroke-miterlimit="10" d="M59.2 106.67c2.8-20.56 12.1-35.7 23.2-35.7s20.38 15.14 23.17 35.7H59.2z" stroke-linecap="round" stroke-linejoin="round"/><ellipse cx="42.985" cy="70.118" fill="none" stroke="#666666" stroke-width="3" stroke-miterlimit="10" stroke-linecap="round" stroke-linejoin="round" rx="10.375" ry="10.132"/><path fill="none" stroke="#666666" stroke-width="3" stroke-miterlimit="10" d="M28.1 106.67c1.8-13.2 7.76-22.92 14.88-22.92 7.12 0 13.1 9.72 14.9 22.92h-29.8z" stroke-linecap="round" stroke-linejoin="round"/><path fill="none" stroke="#666666" stroke-width="3" stroke-miterlimit="10" d="M96.34 22.52l-94.8 39.7S-.77 24 33.1 9.8c.2-.07.4-.16.6-.25C68.75-5.1 96.34 22.52 96.34 22.52zM34.66 9.2s-18 18.1-8.53 42.6M35.32 8.9s25.55-.1 36.34 23.83M30.97.57s1.26 3.06 3.33 8.04M49.1 44.28c6.1 14.7 12.27 29.57 15.93 38.38"/></svg>