<!DOCTYPE svg PUBLIC "-//W3C//DTD SVG 1.1//EN" "http://www.w3.org/Graphics/SVG/1.1/DTD/svg11.dtd" [
	<!ENTITY ns_flows "http://ns.adobe.com/Flows/1.0/">
]><svg xmlns="http://www.w3.org/2000/svg" width="103" height="115" overflow="visible"><path fill="none" stroke="#666666" stroke-width="3" stroke-miterlimit="10" d="M37.13 74.86c0 4.84.02 9.68.35 14.5.9 13.15 12.06 23.4 25.72 24.14 12.58.67 25.2-9.05 26.93-21.67 1.03-7.5.6-15.23.62-22.85 0-.1-.03-.2-.08-.3"/><path fill="none" stroke="#666666" stroke-width="3" stroke-miterlimit="10" d="M101.68 58.13c-.03-5.62-4.8-10.42-10.43-10.46-5.67-.03-10.63 4.94-10.56 10.6.05 5.64 4.83 10.4 10.45 10.43 5.72.03 10.56-4.82 10.53-10.57zM95.9 58.16c0 2.58-2.16 4.76-4.73 4.75-2.53 0-4.68-2.14-4.7-4.67-.04-2.55 2.2-4.78 4.74-4.77 2.54.02 4.7 2.17 4.7 4.7zM37.32 76c-7.83.62-16.44-4.5-21.32-10.4-2.68-3.22-4.4-7.24-6.46-10.95-5.56-9.98-9.7-22.41-7.38-33.95 1.3-6.37 5.9-9.8 11.9-11.48 1.86-.52 3.87-.87 5.63-1.7 1.6-.76 2.95-2.42 4.78-2.52.2-.02.42 0 .62.02"/><circle cx="26.465" cy="3.968" r="2.468" fill="none" stroke="#666666" stroke-width="3" stroke-miterlimit="10"/><path fill="none" stroke="#666666" stroke-width="3" stroke-miterlimit="10" d="M49.5 5.02c.2-.03.4-.04.62-.02 1.84.1 3.2 1.76 4.8 2.52 1.75.83 3.76 1.18 5.62 1.7 6 1.66 10.6 5.1 11.9 11.48 2.33 11.54-1.82 23.97-7.38 33.95-2.07 3.7-3.78 7.73-6.46 10.96-4.9 5.9-13.5 11.02-21.32 10.4"/><circle cx="48.135" cy="3.968" r="2.468" fill="none" stroke="#666666" stroke-width="3" stroke-miterlimit="10"/></svg>