<!DOCTYPE svg PUBLIC "-//W3C//DTD SVG 1.1//EN" "http://www.w3.org/Graphics/SVG/1.1/DTD/svg11.dtd" [
	<!ENTITY ns_flows "http://ns.adobe.com/Flows/1.0/">
]><svg xmlns="http://www.w3.org/2000/svg" width="109" height="106" overflow="visible"><path fill="none" stroke="#666666" stroke-width="3" stroke-miterlimit="10" d="M10.04 49.32c-3.1 3.6-8.77 11.4-8.53 20.47.33 12.46 10 12.28 10 12.28M20.63 63.06c.6 2.08.94 4.34.88 6.73-.32 12.46-10 12.28-10 12.28M11.5 68.95v35.93M7.05 75.62l4.08 3.23M15.87 71.54l-4.1 3.22"/><circle cx="85.761" cy="23.289" r="7.421" fill="none" stroke="#666666" stroke-width="3" stroke-miterlimit="10"/><path fill="none" stroke="#666666" stroke-width="3" stroke-miterlimit="10" d="M85.76 43.46V33.18M85.76 13.4V3.1M105.93 23.3H95.66M75.86 23.3H65.6M97.18 11.43l-4.2 5.32M74.34 11.43l4.2 5.32M97.18 35.78l-4.2-5.32M74.34 35.78l4.2-5.32M26.7 64.14s17.3.33 17.88-21.96-17.5-40.1-17.5-40.1S8.27 19.9 8.86 42.19s17.87 21.96 17.87 21.96M26.7 40.7v64.18M18.74 52.6l7.3 5.77M34.5 45.3l-7.3 5.77M.1 104.2h108.4"/><circle cx="86.142" cy="68.462" r="9.2" fill="none" stroke="#666666" stroke-width="3" stroke-miterlimit="10" stroke-linecap="round" stroke-linejoin="round"/><path fill="none" stroke="#666666" stroke-width="3" stroke-miterlimit="10" d="M99.6 103.7c-1.22-13.06-6.78-22.93-13.46-22.93S73.9 90.65 72.7 103.7h26.9z" stroke-linecap="round" stroke-linejoin="round"/><circle cx="54.967" cy="68.462" r="9.2" fill="none" stroke="#666666" stroke-width="3" stroke-miterlimit="10" stroke-linecap="round" stroke-linejoin="round"/><path fill="none" stroke="#666666" stroke-width="3" stroke-miterlimit="10" d="M68.42 103.7c-1.2-13.06-6.77-22.93-13.45-22.93-6.7 0-12.24 9.88-13.45 22.94h26.9z" stroke-linecap="round" stroke-linejoin="round"/></svg>