<!DOCTYPE svg PUBLIC "-//W3C//DTD SVG 1.1//EN" "http://www.w3.org/Graphics/SVG/1.1/DTD/svg11.dtd" [
	<!ENTITY ns_flows "http://ns.adobe.com/Flows/1.0/">
]><svg xmlns="http://www.w3.org/2000/svg" width="109" height="108" overflow="visible"><path fill="none" stroke="#666666" stroke-width="3" stroke-miterlimit="10" d="M29.6 9.73h50M86.93 9.73h20.9v96.73H1.5V9.73h20.43"/><path fill="#fff" d="M21.84 1.5h7.43v15.57h-7.43z"/><path fill="none" stroke="#666666" stroke-width="3" stroke-miterlimit="10" d="M21.84 1.5h7.43v15.57h-7.43z"/><path fill="#fff" d="M79.66 1.5h7.43v15.57h-7.44z"/><path fill="none" stroke="#666666" stroke-width="3" stroke-miterlimit="10" d="M79.66 1.5h7.43v15.57h-7.44z"/><path fill="#fff" d="M9.82 38.17h8.95v5.6H9.82z"/><path fill="none" stroke="#666666" stroke-width="3" stroke-miterlimit="10" d="M9.82 38.17h8.95v5.6H9.82z"/><path fill="#fff" d="M23.27 38.17h8.96v5.6h-8.96z"/><path fill="none" stroke="#666666" stroke-width="3" stroke-miterlimit="10" d="M23.27 38.17h8.96v5.6h-8.96z"/><path fill="#fff" d="M36.73 38.17h8.96v5.6h-8.97z"/><path fill="none" stroke="#666666" stroke-width="3" stroke-miterlimit="10" d="M36.73 38.17h8.96v5.6h-8.97z"/><path fill="#fff" d="M50.2 38.17h8.95v5.6h-8.96z"/><path fill="none" stroke="#666666" stroke-width="3" stroke-miterlimit="10" d="M50.2 38.17h8.95v5.6h-8.96z"/><path fill="#fff" d="M63.65 38.17h8.95v5.6h-8.95z"/><path fill="none" stroke="#666666" stroke-width="3" stroke-miterlimit="10" d="M63.65 38.17h8.95v5.6h-8.95z"/><path fill="#fff" d="M77.1 38.17h8.96v5.6H77.1z"/><path fill="none" stroke="#666666" stroke-width="3" stroke-miterlimit="10" d="M77.1 38.17h8.96v5.6H77.1z"/><path fill="#fff" d="M90.56 38.17h8.96v5.6h-8.96z"/><path fill="none" stroke="#666666" stroke-width="3" stroke-miterlimit="10" d="M90.56 38.17h8.96v5.6h-8.96z"/><path fill="#fff" d="M9.82 49.46h8.95v5.6H9.82z"/><path fill="none" stroke="#666666" stroke-width="3" stroke-miterlimit="10" d="M9.82 49.46h8.95v5.6H9.82z"/><path fill="#fff" d="M23.27 49.46h8.96v5.6h-8.96z"/><path fill="none" stroke="#666666" stroke-width="3" stroke-miterlimit="10" d="M23.27 49.46h8.96v5.6h-8.96z"/><path fill="#fff" d="M36.73 49.46h8.96v5.6h-8.97z"/><path fill="none" stroke="#666666" stroke-width="3" stroke-miterlimit="10" d="M36.73 49.46h8.96v5.6h-8.97z"/><path fill="#fff" d="M50.2 49.46h8.95v5.6h-8.96z"/><path fill="none" stroke="#666666" stroke-width="3" stroke-miterlimit="10" d="M50.2 49.46h8.95v5.6h-8.96z"/><path fill="#fff" d="M63.65 49.46h8.95v5.6h-8.95z"/><path fill="none" stroke="#666666" stroke-width="3" stroke-miterlimit="10" d="M63.65 49.46h8.95v5.6h-8.95z"/><path fill="#fff" d="M77.1 49.46h8.96v5.6H77.1z"/><path fill="none" stroke="#666666" stroke-width="3" stroke-miterlimit="10" d="M77.1 49.46h8.96v5.6H77.1z"/><path fill="#fff" d="M90.56 49.46h8.96v5.6h-8.96z"/><path fill="none" stroke="#666666" stroke-width="3" stroke-miterlimit="10" d="M90.56 49.46h8.96v5.6h-8.96z"/><path fill="#fff" d="M9.82 60.75h8.95v5.6H9.82z"/><path fill="none" stroke="#666666" stroke-width="3" stroke-miterlimit="10" d="M9.82 60.75h8.95v5.6H9.82z"/><path fill="#fff" d="M23.27 60.75h8.96v5.6h-8.96z"/><path fill="none" stroke="#666666" stroke-width="3" stroke-miterlimit="10" d="M23.27 60.75h8.96v5.6h-8.96z"/><path fill="#fff" d="M36.73 60.75h8.96v5.6h-8.97z"/><path fill="none" stroke="#666666" stroke-width="3" stroke-miterlimit="10" d="M36.73 60.75h8.96v5.6h-8.97z"/><path fill="#fff" d="M50.2 60.75h8.95v5.6h-8.96z"/><path fill="none" stroke="#666666" stroke-width="3" stroke-miterlimit="10" d="M50.2 60.75h8.95v5.6h-8.96z"/><path fill="#fff" d="M63.65 60.75h8.95v5.6h-8.95z"/><path fill="none" stroke="#666666" stroke-width="3" stroke-miterlimit="10" d="M63.65 60.75h8.95v5.6h-8.95z"/><path fill="#fff" d="M77.1 60.75h8.96v5.6H77.1z"/><path fill="none" stroke="#666666" stroke-width="3" stroke-miterlimit="10" d="M77.1 60.75h8.96v5.6H77.1z"/><path fill="#fff" d="M90.56 60.75h8.96v5.6h-8.96z"/><path fill="none" stroke="#666666" stroke-width="3" stroke-miterlimit="10" d="M90.56 60.75h8.96v5.6h-8.96z"/><path fill="#fff" d="M9.82 72.03h8.95v5.6H9.82z"/><path fill="none" stroke="#666666" stroke-width="3" stroke-miterlimit="10" d="M9.82 72.03h8.95v5.6H9.82z"/><path fill="#fff" d="M23.27 72.03h8.96v5.6h-8.96z"/><path fill="none" stroke="#666666" stroke-width="3" stroke-miterlimit="10" d="M23.27 72.03h8.96v5.6h-8.96z"/><path fill="#fff" d="M36.73 72.03h8.96v5.6h-8.97z"/><path fill="none" stroke="#666666" stroke-width="3" stroke-miterlimit="10" d="M36.73 72.03h8.96v5.6h-8.97z"/><path fill="#fff" d="M50.2 72.03h8.95v5.6h-8.96z"/><path fill="none" stroke="#666666" stroke-width="3" stroke-miterlimit="10" d="M50.2 72.03h8.95v5.6h-8.96z"/><path fill="#fff" d="M63.65 72.03h8.95v5.6h-8.95z"/><path fill="none" stroke="#666666" stroke-width="3" stroke-miterlimit="10" d="M63.65 72.03h8.95v5.6h-8.95z"/><path fill="#fff" d="M77.1 72.03h8.96v5.6H77.1z"/><path fill="none" stroke="#666666" stroke-width="3" stroke-miterlimit="10" d="M77.1 72.03h8.96v5.6H77.1z"/><path fill="#fff" d="M90.56 72.03h8.96v5.6h-8.96z"/><path fill="none" stroke="#666666" stroke-width="3" stroke-miterlimit="10" d="M90.56 72.03h8.96v5.6h-8.96z"/><path fill="#fff" d="M9.82 83.32h8.95v5.6H9.82z"/><path fill="none" stroke="#666666" stroke-width="3" stroke-miterlimit="10" d="M9.82 83.32h8.95v5.6H9.82z"/><path fill="#fff" d="M23.27 83.32h8.96v5.6h-8.96z"/><path fill="none" stroke="#666666" stroke-width="3" stroke-miterlimit="10" d="M23.27 83.32h8.96v5.6h-8.96z"/></svg>