<!DOCTYPE svg PUBLIC "-//W3C//DTD SVG 1.1//EN" "http://www.w3.org/Graphics/SVG/1.1/DTD/svg11.dtd" [
	<!ENTITY ns_flows "http://ns.adobe.com/Flows/1.0/">
]><svg xmlns="http://www.w3.org/2000/svg" width="119" height="91" overflow="visible"><path fill="none" stroke="#666666" stroke-width="3" stroke-miterlimit="10" d="M107.7 60.1c-2.24 4.9-5.85 10.1-10.42 13.7M80.67 82.2c-4.82 1.37-10 2.12-15.43 2.12-4.93 0-9.67-.62-14.1-1.77M34.53 75.2c-8.75-6.5-14.4-16.17-14.4-26.34 0-19.58 20.2-35.46 45.1-35.46 4.1 0 8.08.43 11.86 1.23M93.73 21.37c7.3 4.68 12.7 11.12 15.15 18.5M108.7 38.2c1.56-.1 8.38-2.37 8.38-2.37l-4.12 24.96h-6.54M33.86 73.88v15.6h14.7l4.18-7.8M97.84 72.6v16.87h-14.7l-4.17-7.8M76.33 16.03S79.3 2.93 98.9 1.63l-4.68 21.2"/><path fill="none" stroke="#666666" stroke-width="3" stroke-miterlimit="10" d="M75.1 25.16H55.7c-.87 0-1.58-.7-1.58-1.56v-1.12c0-.86.7-1.57 1.57-1.57h19.4c.85 0 1.55.72 1.55 1.58v1.1c0 .88-.7 1.58-1.56 1.58z"/><path fill="#666666" d="M99.56 40.03c0 1.72-1.4 3.1-3.1 3.1s-3.1-1.38-3.1-3.1 1.38-3.1 3.1-3.1 3.1 1.4 3.1 3.1"/><path fill="none" stroke="#666666" stroke-width="3" stroke-miterlimit="10" d="M.53 35.02c5.42 2.03 11.65 4.27 15.2-2.03 1.35-2.43 3.8-9.76-.68-10.5-3.56-.58-5.8 2.45-5.86 5.75-.07 3 1.27 6.22 3.62 8.13 2.42 1.97 5.5 2.92 8.6 3.34"/><ellipse cx="65.66" cy="42.457" fill="none" stroke="#666666" stroke-width="3" stroke-miterlimit="10" stroke-linecap="round" stroke-linejoin="round" rx="8.983" ry="8.773"/><path fill="none" stroke="#666666" stroke-width="3" stroke-miterlimit="10" d="M78.55 74.38C77 62.94 71.82 54.53 65.65 54.53c-6.15 0-11.33 8.4-12.88 19.85h25.78z" stroke-linecap="round" stroke-linejoin="round"/></svg>