<!DOCTYPE svg PUBLIC "-//W3C//DTD SVG 1.1//EN" "http://www.w3.org/Graphics/SVG/1.1/DTD/svg11.dtd" [
	<!ENTITY ns_flows "http://ns.adobe.com/Flows/1.0/">
]><svg xmlns="http://www.w3.org/2000/svg" width="96" height="105" overflow="visible"><path fill="none" stroke="#666666" stroke-width="3" stroke-miterlimit="10" d="M30.05 94l-7.1 8.63c-1 1.2-2.8 1.38-4 .4l-2.3-1.92c-1.2-.98-1.38-2.78-.4-3.98l7.1-8.62c1-1.2 2.8-1.38 4-.4l2.3 1.92c1.2 1 1.4 2.8.4 4zM66.25 94l7.1 8.63c1 1.2 2.8 1.38 4 .4l2.3-1.92c1.2-.98 1.38-2.78.4-3.98l-7.1-8.62c-1-1.2-2.8-1.38-4-.4l-2.3 1.92c-1.22 1-1.4 2.8-.4 4z"/><circle cx="48.149" cy="55.045" r="38.001" fill="none" stroke="#666666" stroke-width="3" stroke-miterlimit="10"/><path fill="none" stroke="#666666" stroke-width="3" stroke-miterlimit="10" d="M39.8 10.05h16.7v6.8H39.8zM25.48 21.72l-5.4-6.56c-.76-.92-2.13-1.05-3.05-.3l-1.76 1.46c-.92.75-1.05 2.12-.3 3.03l5.4 6.57c.76.9 2.13 1.04 3.05.3l1.76-1.46c.92-.76 1.05-2.13.3-3.04zM4.32 24.35C-.28 18 .87 9.22 6.9 4.85l1.25-.9c6.02-4.37 14.7-2.73 19.32 3.62L4.32 24.35zM70.82 21.72l5.4-6.56c.76-.92 2.13-1.05 3.04-.3l1.77 1.46c.92.75 1.05 2.12.3 3.03l-5.4 6.57c-.76.9-2.13 1.04-3.05.3l-1.76-1.46c-.92-.76-1.05-2.13-.3-3.04zM91.97 24.35c4.6-6.36 3.46-15.13-2.56-19.5l-1.25-.9C82.13-.43 73.45 1.2 68.83 7.56l23.14 16.78z"/><path fill="#666666" d="M51.9 57.6c0 1.35-1.1 2.45-2.44 2.45-1.36 0-2.46-1.1-2.46-2.45 0-1.36 1.1-2.46 2.46-2.46 1.35 0 2.45 1.1 2.45 2.46"/><circle cx="49.457" cy="57.596" r="2.455" fill="none" stroke="#666666" stroke-width="3" stroke-miterlimit="10"/><path fill="none" stroke="#666666" stroke-width="3" stroke-miterlimit="10" d="M49.83 57.09L27.9 77.48M48.8 55.55L41.68 37.7"/></svg>