<!DOCTYPE svg PUBLIC "-//W3C//DTD SVG 1.1//EN" "http://www.w3.org/Graphics/SVG/1.1/DTD/svg11.dtd" [
	<!ENTITY ns_flows "http://ns.adobe.com/Flows/1.0/">
]><svg xmlns="http://www.w3.org/2000/svg" width="141" height="111" viewBox="0 -0.001 141 111" overflow="visible" enable-background="new 0 -0.001 141 111"><path fill="none" stroke="#666666" stroke-width="3" stroke-miterlimit="10" d="M100.1 62.98v17.6l-49.3 28.46L1.5 80.58V23.65l49.3-22s19.95 8.9 34.46 15.38"/><path fill="#fff" d="M61.17 41.95C55.1 44.9 50.8 47 50.8 47L1.5 23.64"/><path fill="none" stroke="#666666" stroke-width="3" stroke-miterlimit="10" d="M61.17 41.95C55.1 44.9 50.8 47 50.8 47L1.5 23.64M50.8 108.66V47"/><path fill="none" stroke="#666666" stroke-width="3" stroke-miterlimit="10" d="M60.67 17h78.93v46.17H60.67zM95.58 42.44h25.8M95.58 47.94h25.8M95.58 53.45h25.8"/><path fill="#fff" d="M124.42 22.32h9.5V34.1h-9.5z"/><path fill="none" stroke="#666666" stroke-width="3" stroke-miterlimit="10" d="M124.42 22.32h9.5V34.1h-9.5zM123.77 25.76c-1.4.45-2.9.92-4.62.95-2.47.07-4.56-.78-5.93-1.67-1.38-.9-2.43-1.9-4.36-2.6s-5.2-.8-6.6.1M123.77 31.62c-1.4.45-2.9.92-4.62.95-2.47.06-4.56-.8-5.93-1.68-1.38-.9-2.43-1.92-4.36-2.6s-5.2-.8-6.6.08M64.84 23.84H78.4"/><path fill="none" stroke="#666666" stroke-width="3" stroke-miterlimit="10" d="M7.95 63.66L41 54.5l3 10.82-33.05 9.16zM17.52 66.36l18.7-5.2"/></svg>