<!DOCTYPE svg PUBLIC "-//W3C//DTD SVG 1.1//EN" "http://www.w3.org/Graphics/SVG/1.1/DTD/svg11.dtd" [
	<!ENTITY ns_flows "http://ns.adobe.com/Flows/1.0/">
]><svg xmlns="http://www.w3.org/2000/svg" width="137" height="80" overflow="visible"><path fill="none" stroke="#666666" stroke-width="3" stroke-miterlimit="10" d="M68.68 1.44L5.48 20.57l62.98 16.7M68 1.44l63.2 19.13-62.96 16.7V49.1M42.23 29.94c-3.27 7.26-8.7 19.33-8.7 19.33s21.74 10.8 30.92 15.36M94.4 29.8c3.26 7.25 8.77 19.47 8.77 19.47"/><path fill="#666666" d="M90.84 66.4l.06-1.35c-1.2 0-2.4-.25-3.05-.58l.64-.9c.64.32 1.64.58 2.75.58 1.4 0 2.32-.55 2.27-1.3-.05-.74-.77-1.2-2.06-1.6-1.68-.52-2.62-1.14-2.4-2.3.2-1.1 1.13-1.94 2.36-2.14l.06-1.33h.74v1.3c.8 0 1.35.23 1.77.45l-.25.88c-.32-.16-.9-.45-1.8-.45-1.06 0-1.53.6-1.6 1.14-.06.7.5 1.03 1.88 1.5 1.74.57 2.72 1.26 2.9 2.45.16 1.05-.82 2.03-2.92 2.26l.02 1.4h-1.38z"/><path fill="none" stroke="#666666" stroke-width="3" stroke-miterlimit="10" d="M64.68 49.77h54.17v22.05H64.68z"/><ellipse cx="91.803" cy="60.933" fill="none" stroke="#666666" stroke-width="3" stroke-miterlimit="10" rx="7.077" ry="8.005"/><path fill="none" stroke="#666666" stroke-width="3" stroke-miterlimit="10" d="M19.2 77.52l3.34-53 45-6L26.2 26.2l4.34 51.32M67.54 18.52l-43 7v54.33"/></svg>