<!DOCTYPE svg PUBLIC "-//W3C//DTD SVG 1.1//EN" "http://www.w3.org/Graphics/SVG/1.1/DTD/svg11.dtd" [
	<!ENTITY ns_flows "http://ns.adobe.com/Flows/1.0/">
]><svg xmlns="http://www.w3.org/2000/svg" width="161" height="119" overflow="visible"><path fill="none" stroke="#666666" stroke-width="3" stroke-miterlimit="10" d="M125.11 117.58H60.2"/><path fill="none" stroke="#666666" stroke-width="3" stroke-miterlimit="10" d="M69.5 53.2l89.6 37.5s2.17-36.1-29.84-49.5c-.2-.08-.4-.16-.58-.24C95.58 27.1 69.5 53.2 69.5 53.2zM127.8 40.6s17 17.13 8.06 40.26M127.17 40.33s-24.14-.1-34.34 22.52M131.3 32.45s-1.2 2.9-3.16 7.6M114.14 73.77c-9 21.7-18.18 43.8-18.18 43.8"/><circle cx="33.838" cy="33.837" r="12.45" fill="none" stroke="#666666" stroke-width="3" stroke-miterlimit="10"/><path fill="none" stroke="#666666" stroke-width="3" stroke-miterlimit="10" d="M33.84 67.68V50.44M33.84 17.24V0M67.68 33.84H50.44M17.24 33.84H0M53 13.94l-7.03 8.94M14.68 13.94l7.03 8.94M53 54.8l-7.03-8.94M14.68 54.8l7.03-8.94"/></svg>