<!DOCTYPE svg PUBLIC "-//W3C//DTD SVG 1.1//EN" "http://www.w3.org/Graphics/SVG/1.1/DTD/svg11.dtd" [
	<!ENTITY ns_flows "http://ns.adobe.com/Flows/1.0/">
]><svg xmlns="http://www.w3.org/2000/svg" width="104" height="23" overflow="visible"><path d="M102.82 6.68c.05 0 .1 0 .13 0 .04 0 .08 0 .1-.03.04 0 .07-.03.1-.06 0-.04 0-.08 0-.13s0-.08 0-.1c-.03-.03-.05-.05-.08-.07-.02 0-.05-.02-.1-.02-.02 0-.06 0-.1 0h-.26v.4h.22zm.1-.58c.15 0 .26.03.34.1s.1.15.1.28c0 .1-.02.2-.1.25-.06.06-.14.1-.24.1l.38.58h-.22l-.35-.55h-.22v.56h-.2V6.1h.5"/><path d="M102.83 5.6c-.64 0-1.16.5-1.16 1.16s.52 1.16 1.16 1.16S104 7.4 104 6.76s-.52-1.17-1.17-1.17zm0 .2c.53 0 .96.43.96.96s-.44.96-.97.96-.95-.43-.95-.96.43-.96.95-.96"/><path d="M20.6 13.2c.28.37.8.8 1.64.8.8 0 1.33-.43 1.62-.8.36-.46.4-.74.4-2.38 0-1.65-.04-1.94-.4-2.4-.3-.37-.8-.8-1.62-.8-.83 0-1.36.43-1.64.8-.37.46-.4.75-.4 2.4 0 1.64.03 1.92.4 2.4zm3.55 1.67c-.55.7-1.55 1.2-2.6 1.2-1.33 0-2.22-.68-2.68-1.26-.6-.76-.76-1.15-.76-3.98 0-2.85.2-3.23.8-4 .45-.6 1.3-1.25 2.65-1.25 1.05 0 2.05.4 2.6 1.2V5.74h2.18v9.96c0 3.1-2.1 4.5-4.46 4.5-1.3 0-2.65-.68-3.56-1.72l1.6-1.27c.52.52 1.17.94 1.96.94 1.37 0 2.3-.8 2.3-2.22v-1.05"/><path d="M28.65 1.64h2.18V13.3c0 .46.26.6.77.6h.6v1.92h-.8c-1.5 0-2.75-.53-2.75-2.37V1.65"/><path d="M39.57 11.46H37.2c-1.2 0-1.78.55-1.78 1.3 0 .7.5 1.33 1.9 1.33 1.72 0 2.25-.16 2.25-1.76v-.88zm0 3.54h.06c-.42.82-1.13 1.05-2.52 1.05-2.28 0-3.62-1.4-3.62-3.17 0-1.64 1.14-3.06 3.34-3.06h2.75v-1c0-.97-.57-1.3-2.05-1.3-1.07 0-1.56.2-1.92.78L34 7.06c.78-1.1 1.93-1.5 3.47-1.5 2.53 0 4.3.86 4.3 3.38v6.88h-2.2V15"/><path d="M44.84 12.8c.9.87 1.86 1.32 3.24 1.32 1.17 0 2.02-.45 2.02-1.3 0-.74-.55-.97-1.25-1.03l-1.82-.17c-1.7-.14-2.96-1.15-2.96-2.9 0-2.1 1.66-3.16 3.82-3.16 1.8 0 3 .54 4.02 1.4l-1.27 1.5c-.8-.58-1.64-.96-2.76-.96-1.32 0-1.77.53-1.77 1.24 0 .44.33.9 1.36.97l1.7.13c2.1.14 2.96 1.44 2.96 3.08 0 2-1.86 3.16-4.25 3.16-1.64 0-3.18-.6-4.5-1.84l1.44-1.4"/><path d="M54.68 12.8c.9.87 1.86 1.32 3.24 1.32 1.17 0 2.02-.45 2.02-1.3 0-.74-.55-.97-1.26-1.03l-1.8-.17c-1.72-.14-2.97-1.15-2.97-2.9 0-2.1 1.67-3.16 3.83-3.16 1.8 0 3.02.54 4.03 1.4l-1.27 1.5c-.83-.58-1.66-.96-2.77-.96-1.3 0-1.76.53-1.76 1.24 0 .44.32.9 1.36.97l1.7.13c2.12.14 2.97 1.44 2.97 3.08 0 2-1.86 3.16-4.25 3.16-1.66 0-3.2-.6-4.5-1.84l1.43-1.4"/><path d="M65.65 10.8c0 1.6.1 3.2 2.04 3.2 1.9 0 2-1.7 2-3.2.02-1.47-.1-3.17-2-3.17-1.95 0-2.05 1.6-2.05 3.17zm4.14 4.07c-.83.7-1.65 1.2-2.7 1.2-1.25 0-2.18-.58-2.77-1.34-.56-.73-.74-1.4-.74-3.93 0-2.5.15-3.17.72-3.9.6-.77 1.53-1.33 2.78-1.33 1.06 0 1.87.48 2.7 1.2V1.65h1.9v14.18h-1.9v-.95"/><path d="M79.37 8.38c-.3-.43-.95-.75-1.66-.75s-1.35.32-1.65.75c-.38.54-.5.95-.5 2.42 0 1.5.12 1.9.5 2.45.3.42.95.75 1.66.75s1.36-.33 1.67-.75c.4-.55.5-.95.5-2.43 0-1.5-.1-1.9-.5-2.44zm-4.78-1.5c.56-.63 1.5-1.3 3.1-1.3s2.56.67 3.13 1.3c.78.87 1.1 1.72 1.1 3.92 0 2.23-.32 3.08-1.1 3.94-.57.63-1.52 1.32-3.12 1.32s-2.54-.7-3.1-1.3c-.8-.88-1.12-1.74-1.12-3.96 0-2.2.33-3.05 1.1-3.92"/><path d="M89.4 8.38c-.32-.43-.96-.75-1.67-.75s-1.36.32-1.66.75c-.4.54-.5.95-.5 2.42 0 1.5.1 1.9.5 2.45.3.42.95.75 1.66.75s1.35-.33 1.66-.75c.37-.55.5-.95.5-2.43 0-1.5-.13-1.9-.5-2.44zm-4.8-1.5c.58-.63 1.53-1.3 3.13-1.3 1.6 0 2.54.67 3.1 1.3.8.87 1.13 1.72 1.13 3.92 0 2.23-.33 3.08-1.12 3.94-.56.63-1.52 1.32-3.1 1.32-1.6 0-2.56-.7-3.13-1.3-.78-.88-1.1-1.74-1.1-3.96 0-2.2.32-3.05 1.1-3.92"/><path d="M93.77 5.73h2.2v1.1h-.02c.64-.83 1.57-1.24 2.67-1.24.83 0 1.52.28 2.15.77l-1.5 1.77c-.5-.36-.8-.5-1.33-.5-1.02 0-1.98.64-1.98 2.13v6.05h-2.2V5.72"/><path fill="#6EB72E" d="M13.7 3.57V2.1L2.54.05C1.22-.2 0 .8 0 2.14v18.7C0 22.1 1.3 23 2.5 22.5l9.8-4.08c.85-.36 1.4-1.18 1.4-2.1V4.43l-2.26-.14v10.8c0 .73-.46 1.4-1.15 1.65l-6.22 2.3V4.08c0-.84.73-1.5 1.57-1.4l8.05.9"/></svg>